<?xml version="1.0" encoding="utf-8" standalone="no"?>
<!DOCTYPE svg PUBLIC "-//W3C//DTD SVG 1.1//EN"
  "http://www.w3.org/Graphics/SVG/1.1/DTD/svg11.dtd">
<!-- Created with matplotlib (https://matplotlib.org/) -->
<svg height="144pt" version="1.1" viewBox="0 0 432 144" width="432pt" xmlns="http://www.w3.org/2000/svg" xmlns:xlink="http://www.w3.org/1999/xlink">
 <metadata>
  <rdf:RDF xmlns:cc="http://creativecommons.org/ns#" xmlns:dc="http://purl.org/dc/elements/1.1/" xmlns:rdf="http://www.w3.org/1999/02/22-rdf-syntax-ns#">
   <cc:Work>
    <dc:type rdf:resource="http://purl.org/dc/dcmitype/StillImage"/>
    <dc:date>2021-10-08T14:22:06.753593</dc:date>
    <dc:format>image/svg+xml</dc:format>
    <dc:creator>
     <cc:Agent>
      <dc:title>Matplotlib v3.3.3, https://matplotlib.org/</dc:title>
     </cc:Agent>
    </dc:creator>
   </cc:Work>
  </rdf:RDF>
 </metadata>
 <defs>
  <style type="text/css">*{stroke-linecap:butt;stroke-linejoin:round;}</style>
 </defs>
 <g id="figure_1">
  <g id="patch_1">
   <path d="M 0 144 
L 432 144 
L 432 0 
L 0 0 
z
" style="fill:#ffffff;"/>
  </g>
  <g id="axes_1">
   <g id="patch_2">
    <path d="M 44.57 102.04 
L 421.2 102.04 
L 421.2 14.76 
L 44.57 14.76 
z
" style="fill:#ffffff;"/>
   </g>
   <g id="matplotlib.axis_1">
    <g id="xtick_1">
     <g id="line2d_1">
      <defs>
       <path d="M 0 0 
L 0 3.5 
" id="m0b5c47ec4a" style="stroke:#000000;stroke-width:0.8;"/>
      </defs>
      <g>
       <use style="stroke:#000000;stroke-width:0.8;" x="61.689545" xlink:href="#m0b5c47ec4a" y="102.04"/>
      </g>
     </g>
     <g id="text_1">
      <text style="font-family:DejaVu Sans;font-size:10px;font-stretch:normal;font-style:normal;font-weight:normal;text-anchor:middle;" transform="rotate(-0, 61.689545, 116.638437)" x="61.689545" y="116.638437">0</text>
     </g>
    </g>
    <g id="xtick_2">
     <g id="line2d_2">
      <g>
       <use style="stroke:#000000;stroke-width:0.8;" x="110.602532" xlink:href="#m0b5c47ec4a" y="102.04"/>
      </g>
     </g>
     <g id="text_2">
      <text style="font-family:DejaVu Sans;font-size:10px;font-stretch:normal;font-style:normal;font-weight:normal;text-anchor:middle;" transform="rotate(-0, 110.602532, 116.638437)" x="110.602532" y="116.638437">1</text>
     </g>
    </g>
    <g id="xtick_3">
     <g id="line2d_3">
      <g>
       <use style="stroke:#000000;stroke-width:0.8;" x="159.515519" xlink:href="#m0b5c47ec4a" y="102.04"/>
      </g>
     </g>
     <g id="text_3">
      <text style="font-family:DejaVu Sans;font-size:10px;font-stretch:normal;font-style:normal;font-weight:normal;text-anchor:middle;" transform="rotate(-0, 159.515519, 116.638437)" x="159.515519" y="116.638437">2</text>
     </g>
    </g>
    <g id="xtick_4">
     <g id="line2d_4">
      <g>
       <use style="stroke:#000000;stroke-width:0.8;" x="208.428506" xlink:href="#m0b5c47ec4a" y="102.04"/>
      </g>
     </g>
     <g id="text_4">
      <text style="font-family:DejaVu Sans;font-size:10px;font-stretch:normal;font-style:normal;font-weight:normal;text-anchor:middle;" transform="rotate(-0, 208.428506, 116.638437)" x="208.428506" y="116.638437">3</text>
     </g>
    </g>
    <g id="xtick_5">
     <g id="line2d_5">
      <g>
       <use style="stroke:#000000;stroke-width:0.8;" x="257.341494" xlink:href="#m0b5c47ec4a" y="102.04"/>
      </g>
     </g>
     <g id="text_5">
      <text style="font-family:DejaVu Sans;font-size:10px;font-stretch:normal;font-style:normal;font-weight:normal;text-anchor:middle;" transform="rotate(-0, 257.341494, 116.638437)" x="257.341494" y="116.638437">4</text>
     </g>
    </g>
    <g id="xtick_6">
     <g id="line2d_6">
      <g>
       <use style="stroke:#000000;stroke-width:0.8;" x="306.254481" xlink:href="#m0b5c47ec4a" y="102.04"/>
      </g>
     </g>
     <g id="text_6">
      <text style="font-family:DejaVu Sans;font-size:10px;font-stretch:normal;font-style:normal;font-weight:normal;text-anchor:middle;" transform="rotate(-0, 306.254481, 116.638437)" x="306.254481" y="116.638437">5</text>
     </g>
    </g>
    <g id="xtick_7">
     <g id="line2d_7">
      <g>
       <use style="stroke:#000000;stroke-width:0.8;" x="355.167468" xlink:href="#m0b5c47ec4a" y="102.04"/>
      </g>
     </g>
     <g id="text_7">
      <text style="font-family:DejaVu Sans;font-size:10px;font-stretch:normal;font-style:normal;font-weight:normal;text-anchor:middle;" transform="rotate(-0, 355.167468, 116.638437)" x="355.167468" y="116.638437">6</text>
     </g>
    </g>
    <g id="xtick_8">
     <g id="line2d_8">
      <g>
       <use style="stroke:#000000;stroke-width:0.8;" x="404.080455" xlink:href="#m0b5c47ec4a" y="102.04"/>
      </g>
     </g>
     <g id="text_8">
      <text style="font-family:DejaVu Sans;font-size:10px;font-stretch:normal;font-style:normal;font-weight:normal;text-anchor:middle;" transform="rotate(-0, 404.080455, 116.638437)" x="404.080455" y="116.638437">7</text>
     </g>
    </g>
    <g id="text_9">
     <text style="font-family:DejaVu Sans;font-size:10px;font-stretch:normal;font-style:normal;font-weight:normal;text-anchor:middle;" transform="rotate(-0, 232.885, 130.316563)" x="232.885" y="130.316563">Time [s]</text>
    </g>
   </g>
   <g id="matplotlib.axis_2">
    <g id="ytick_1">
     <g id="line2d_9">
      <defs>
       <path d="M 0 0 
L -3.5 0 
" id="ma93925e053" style="stroke:#000000;stroke-width:0.8;"/>
      </defs>
      <g>
       <use style="stroke:#000000;stroke-width:0.8;" x="44.57" xlink:href="#ma93925e053" y="102.04"/>
      </g>
     </g>
     <g id="text_10">
      <text style="font-family:DejaVu Sans;font-size:10px;font-stretch:normal;font-style:normal;font-weight:normal;text-anchor:end;" transform="rotate(-0, 37.57, 105.839219)" x="37.57" y="105.839219">0.0</text>
     </g>
    </g>
    <g id="ytick_2">
     <g id="line2d_10">
      <g>
       <use style="stroke:#000000;stroke-width:0.8;" x="44.57" xlink:href="#ma93925e053" y="80.22"/>
      </g>
     </g>
     <g id="text_11">
      <text style="font-family:DejaVu Sans;font-size:10px;font-stretch:normal;font-style:normal;font-weight:normal;text-anchor:end;" transform="rotate(-0, 37.57, 84.019219)" x="37.57" y="84.019219">2.5</text>
     </g>
    </g>
    <g id="ytick_3">
     <g id="line2d_11">
      <g>
       <use style="stroke:#000000;stroke-width:0.8;" x="44.57" xlink:href="#ma93925e053" y="58.4"/>
      </g>
     </g>
     <g id="text_12">
      <text style="font-family:DejaVu Sans;font-size:10px;font-stretch:normal;font-style:normal;font-weight:normal;text-anchor:end;" transform="rotate(-0, 37.57, 62.199219)" x="37.57" y="62.199219">5.0</text>
     </g>
    </g>
    <g id="ytick_4">
     <g id="line2d_12">
      <g>
       <use style="stroke:#000000;stroke-width:0.8;" x="44.57" xlink:href="#ma93925e053" y="36.58"/>
      </g>
     </g>
     <g id="text_13">
      <text style="font-family:DejaVu Sans;font-size:10px;font-stretch:normal;font-style:normal;font-weight:normal;text-anchor:end;" transform="rotate(-0, 37.57, 40.379219)" x="37.57" y="40.379219">7.5</text>
     </g>
    </g>
    <g id="ytick_5">
     <g id="line2d_13">
      <g>
       <use style="stroke:#000000;stroke-width:0.8;" x="44.57" xlink:href="#ma93925e053" y="14.76"/>
      </g>
     </g>
     <g id="text_14">
      <text style="font-family:DejaVu Sans;font-size:10px;font-stretch:normal;font-style:normal;font-weight:normal;text-anchor:end;" transform="rotate(-0, 37.57, 18.559219)" x="37.57" y="18.559219">10.0</text>
     </g>
    </g>
    <g id="text_15">
     <text style="font-family:DejaVu Sans;font-size:10px;font-stretch:normal;font-style:normal;font-weight:normal;text-anchor:middle;" transform="rotate(-90, 9.224688, 58.4)" x="9.224688" y="58.4">Velocity [m/s]</text>
    </g>
   </g>
   <g id="line2d_14">
    <path clip-path="url(#p97a90af28f)" d="M 61.689545 23.488 
L 66.580844 23.488 
L 71.472143 23.488 
L 76.363442 23.488 
L 81.25474 23.488 
L 86.146039 23.488 
L 91.037338 23.488 
L 95.928636 23.488 
L 100.819935 23.488 
L 105.711234 23.488 
L 110.602532 23.488 
L 115.493831 26.9792 
L 120.38513 30.4704 
L 125.276429 33.9616 
L 130.167727 37.4528 
L 135.059026 40.944 
L 139.950325 44.4352 
L 144.841623 47.9264 
L 149.732922 51.4176 
L 154.624221 54.9088 
L 159.515519 58.4 
L 164.406818 56.6544 
L 169.298117 54.9088 
L 174.189416 53.1632 
L 179.080714 51.4176 
L 183.972013 49.672 
L 188.863312 47.9264 
L 193.75461 46.1808 
L 198.645909 44.4352 
L 203.537208 42.6896 
L 208.428506 40.944 
L 213.319805 39.1984 
L 218.211104 37.4528 
L 223.102403 35.7072 
L 227.993701 33.9616 
L 232.885 32.216 
L 237.776299 30.4704 
L 242.667597 28.7248 
L 247.558896 26.9792 
L 252.450195 25.2336 
L 257.341494 23.488 
L 262.232792 23.488 
L 267.124091 23.488 
L 272.01539 23.488 
L 276.906688 23.488 
L 281.797987 23.488 
L 286.689286 23.488 
L 291.580584 23.488 
L 296.471883 23.488 
L 301.363182 23.488 
L 306.254481 23.488 
L 311.145779 23.488 
L 316.037078 23.488 
L 320.928377 23.488 
L 325.819675 23.488 
L 330.710974 23.488 
L 335.602273 23.488 
L 340.493571 23.488 
L 345.38487 23.488 
L 350.276169 23.488 
L 355.167468 23.488 
L 360.058766 23.488 
L 364.950065 23.488 
L 369.841364 23.488 
L 374.732662 23.488 
L 379.623961 23.488 
L 384.51526 23.488 
L 389.406558 23.488 
L 394.297857 23.488 
L 399.189156 23.488 
L 404.080455 23.488 
" style="fill:none;stroke:#1f77b4;stroke-linecap:square;stroke-width:1.5;"/>
   </g>
   <g id="line2d_15">
    <path clip-path="url(#p97a90af28f)" d="M 61.689545 23.488 
L 66.580844 23.488 
L 71.472143 23.488 
L 76.363442 23.488 
L 81.25474 23.488 
L 86.146039 23.488 
L 91.037338 23.488 
L 95.928636 23.488 
L 100.819935 23.488 
L 105.711234 23.488 
L 110.602532 23.488 
L 115.493831 26.9792 
L 120.38513 30.4704 
L 125.276429 33.9616 
L 130.167727 37.4528 
L 135.059026 40.944 
L 139.950325 44.4352 
L 144.841623 47.9264 
L 149.732922 51.4176 
L 154.624221 54.9088 
L 159.515519 58.4 
L 164.406818 61.8912 
L 169.298117 65.3824 
L 174.189416 68.8736 
L 179.080714 72.3648 
L 183.972013 75.856 
L 188.863312 79.3472 
L 193.75461 82.8384 
L 198.645909 86.3296 
L 203.537208 89.8208 
L 208.428506 93.312 
L 213.319805 96.8032 
L 218.211104 100.2944 
L 223.102403 102.04 
L 227.993701 102.04 
L 232.885 102.04 
L 237.776299 102.04 
L 242.667597 102.04 
L 247.558896 102.04 
L 252.450195 102.04 
L 257.341494 102.04 
L 262.232792 102.04 
L 267.124091 102.04 
L 272.01539 102.04 
L 276.906688 102.04 
L 281.797987 102.04 
L 286.689286 102.04 
L 291.580584 102.04 
L 296.471883 102.04 
L 301.363182 100.2944 
L 306.254481 98.5488 
L 311.145779 96.8032 
L 316.037078 95.0576 
L 320.928377 93.312 
L 325.819675 91.5664 
L 330.710974 89.8208 
L 335.602273 88.0752 
L 340.493571 86.3296 
L 345.38487 84.584 
L 350.276169 82.8384 
L 355.167468 81.0928 
L 360.058766 79.3472 
L 364.950065 77.6016 
L 369.841364 75.856 
L 374.732662 74.1104 
L 379.623961 72.3648 
L 384.51526 70.6192 
L 389.406558 68.8736 
L 394.297857 67.128 
L 399.189156 65.3824 
L 404.080455 63.6368 
" style="fill:none;stroke:#ff7f0e;stroke-linecap:square;stroke-width:1.5;"/>
   </g>
   <g id="patch_3">
    <path d="M 44.57 102.04 
L 44.57 14.76 
" style="fill:none;stroke:#000000;stroke-linecap:square;stroke-linejoin:miter;stroke-width:0.8;"/>
   </g>
   <g id="patch_4">
    <path d="M 421.2 102.04 
L 421.2 14.76 
" style="fill:none;stroke:#000000;stroke-linecap:square;stroke-linejoin:miter;stroke-width:0.8;"/>
   </g>
   <g id="patch_5">
    <path d="M 44.57 102.04 
L 421.2 102.04 
" style="fill:none;stroke:#000000;stroke-linecap:square;stroke-linejoin:miter;stroke-width:0.8;"/>
   </g>
   <g id="patch_6">
    <path d="M 44.57 14.76 
L 421.2 14.76 
" style="fill:none;stroke:#000000;stroke-linecap:square;stroke-linejoin:miter;stroke-width:0.8;"/>
   </g>
   <g id="legend_1">
    <g id="patch_7">
     <path d="M 51.57 97.04 
L 171.404375 97.04 
Q 173.404375 97.04 173.404375 95.04 
L 173.404375 66.68375 
Q 173.404375 64.68375 171.404375 64.68375 
L 51.57 64.68375 
Q 49.57 64.68375 49.57 66.68375 
L 49.57 95.04 
Q 49.57 97.04 51.57 97.04 
z
" style="fill:#ffffff;opacity:0.8;stroke:#cccccc;stroke-linejoin:miter;"/>
    </g>
    <g id="line2d_16">
     <path d="M 53.57 72.782187 
L 73.57 72.782187 
" style="fill:none;stroke:#1f77b4;stroke-linecap:square;stroke-width:1.5;"/>
    </g>
    <g id="line2d_17"/>
    <g id="text_16">
     <text style="font-family:DejaVu Sans;font-size:10px;font-stretch:normal;font-style:normal;font-weight:normal;text-anchor:start;" transform="rotate(-0, 81.57, 76.282187)" x="81.57" y="76.282187">Proposed method</text>
    </g>
    <g id="line2d_18">
     <path d="M 53.57 87.460312 
L 73.57 87.460312 
" style="fill:none;stroke:#ff7f0e;stroke-linecap:square;stroke-width:1.5;"/>
    </g>
    <g id="line2d_19"/>
    <g id="text_17">
     <text style="font-family:DejaVu Sans;font-size:10px;font-stretch:normal;font-style:normal;font-weight:normal;text-anchor:start;" transform="rotate(-0, 81.57, 90.960312)" x="81.57" y="90.960312">Baseline method</text>
    </g>
   </g>
  </g>
 </g>
 <defs>
  <clipPath id="p97a90af28f">
   <rect height="87.28" width="376.63" x="44.57" y="14.76"/>
  </clipPath>
 </defs>
</svg>
