<?xml version="1.0" encoding="utf-8" standalone="no"?>
<!DOCTYPE svg PUBLIC "-//W3C//DTD SVG 1.1//EN"
  "http://www.w3.org/Graphics/SVG/1.1/DTD/svg11.dtd">
<svg height="216pt" version="1.1" viewBox="0 0 432 216" width="432pt" xmlns="http://www.w3.org/2000/svg" xmlns:xlink="http://www.w3.org/1999/xlink">
 <metadata>
  <rdf:RDF xmlns:cc="http://creativecommons.org/ns#" xmlns:dc="http://purl.org/dc/elements/1.1/" xmlns:rdf="http://www.w3.org/1999/02/22-rdf-syntax-ns#">
   <cc:Work>
    <dc:type rdf:resource="http://purl.org/dc/dcmitype/StillImage"/>
    <dc:date>2021-10-28T16:53:03.934282</dc:date>
    <dc:format>image/svg+xml</dc:format>
    <dc:creator>
     <cc:Agent>
      <dc:title>Matplotlib v3.4.3, https://matplotlib.org/</dc:title>
     </cc:Agent>
    </dc:creator>
   </cc:Work>
  </rdf:RDF>
 </metadata>
 <defs>
  <style type="text/css">*{stroke-linecap:butt;stroke-linejoin:round;}</style>
 </defs>
 <g id="figure_1">
  <g id="patch_1">
   <path d="M 0 216 
L 432 216 
L 432 0 
L 0 0 
z
" style="fill:#ffffff;"/>
  </g>
  <g id="axes_1">
   <g id="patch_2">
    <path d="M 44.57 174.04 
L 421.2 174.04 
L 421.2 10.8 
L 44.57 10.8 
z
" style="fill:#ffffff;"/>
   </g>
   <g id="patch_3">
    <path clip-path="url(#pe2d31fe65a)" d="M 61.689545 174.04 
L 62.830848 174.04 
L 62.830848 174.04 
L 61.689545 174.04 
z
" style="fill:#1f77b4;"/>
   </g>
   <g id="patch_4">
    <path clip-path="url(#pe2d31fe65a)" d="M 62.830848 174.04 
L 63.972152 174.04 
L 63.972152 174.04 
L 62.830848 174.04 
z
" style="fill:#1f77b4;"/>
   </g>
   <g id="patch_5">
    <path clip-path="url(#pe2d31fe65a)" d="M 63.972152 174.04 
L 65.113455 174.04 
L 65.113455 174.04 
L 63.972152 174.04 
z
" style="fill:#1f77b4;"/>
   </g>
   <g id="patch_6">
    <path clip-path="url(#pe2d31fe65a)" d="M 65.113455 174.04 
L 66.254758 174.04 
L 66.254758 174.04 
L 65.113455 174.04 
z
" style="fill:#1f77b4;"/>
   </g>
   <g id="patch_7">
    <path clip-path="url(#pe2d31fe65a)" d="M 66.254758 174.04 
L 67.396061 174.04 
L 67.396061 174.04 
L 66.254758 174.04 
z
" style="fill:#1f77b4;"/>
   </g>
   <g id="patch_8">
    <path clip-path="url(#pe2d31fe65a)" d="M 67.396061 174.04 
L 68.537364 174.04 
L 68.537364 174.04 
L 67.396061 174.04 
z
" style="fill:#1f77b4;"/>
   </g>
   <g id="patch_9">
    <path clip-path="url(#pe2d31fe65a)" d="M 68.537364 174.04 
L 69.678667 174.04 
L 69.678667 174.04 
L 68.537364 174.04 
z
" style="fill:#1f77b4;"/>
   </g>
   <g id="patch_10">
    <path clip-path="url(#pe2d31fe65a)" d="M 69.678667 174.04 
L 70.81997 174.04 
L 70.81997 174.04 
L 69.678667 174.04 
z
" style="fill:#1f77b4;"/>
   </g>
   <g id="patch_11">
    <path clip-path="url(#pe2d31fe65a)" d="M 70.81997 174.04 
L 71.961273 174.04 
L 71.961273 174.04 
L 70.81997 174.04 
z
" style="fill:#1f77b4;"/>
   </g>
   <g id="patch_12">
    <path clip-path="url(#pe2d31fe65a)" d="M 71.961273 174.04 
L 73.102576 174.04 
L 73.102576 174.04 
L 71.961273 174.04 
z
" style="fill:#1f77b4;"/>
   </g>
   <g id="patch_13">
    <path clip-path="url(#pe2d31fe65a)" d="M 73.102576 174.04 
L 74.243879 174.04 
L 74.243879 174.04 
L 73.102576 174.04 
z
" style="fill:#1f77b4;"/>
   </g>
   <g id="patch_14">
    <path clip-path="url(#pe2d31fe65a)" d="M 74.243879 174.04 
L 75.385182 174.04 
L 75.385182 174.04 
L 74.243879 174.04 
z
" style="fill:#1f77b4;"/>
   </g>
   <g id="patch_15">
    <path clip-path="url(#pe2d31fe65a)" d="M 75.385182 174.04 
L 76.526485 174.04 
L 76.526485 174.04 
L 75.385182 174.04 
z
" style="fill:#1f77b4;"/>
   </g>
   <g id="patch_16">
    <path clip-path="url(#pe2d31fe65a)" d="M 76.526485 174.04 
L 77.667788 174.04 
L 77.667788 174.04 
L 76.526485 174.04 
z
" style="fill:#1f77b4;"/>
   </g>
   <g id="patch_17">
    <path clip-path="url(#pe2d31fe65a)" d="M 77.667788 174.04 
L 78.809091 174.04 
L 78.809091 174.04 
L 77.667788 174.04 
z
" style="fill:#1f77b4;"/>
   </g>
   <g id="patch_18">
    <path clip-path="url(#pe2d31fe65a)" d="M 78.809091 174.04 
L 79.950394 174.04 
L 79.950394 174.04 
L 78.809091 174.04 
z
" style="fill:#1f77b4;"/>
   </g>
   <g id="patch_19">
    <path clip-path="url(#pe2d31fe65a)" d="M 79.950394 174.04 
L 81.091697 174.04 
L 81.091697 174.04 
L 79.950394 174.04 
z
" style="fill:#1f77b4;"/>
   </g>
   <g id="patch_20">
    <path clip-path="url(#pe2d31fe65a)" d="M 81.091697 174.04 
L 82.233 174.04 
L 82.233 174.04 
L 81.091697 174.04 
z
" style="fill:#1f77b4;"/>
   </g>
   <g id="patch_21">
    <path clip-path="url(#pe2d31fe65a)" d="M 82.233 174.04 
L 83.374303 174.04 
L 83.374303 174.04 
L 82.233 174.04 
z
" style="fill:#1f77b4;"/>
   </g>
   <g id="patch_22">
    <path clip-path="url(#pe2d31fe65a)" d="M 83.374303 174.04 
L 84.515606 174.04 
L 84.515606 174.04 
L 83.374303 174.04 
z
" style="fill:#1f77b4;"/>
   </g>
   <g id="patch_23">
    <path clip-path="url(#pe2d31fe65a)" d="M 84.515606 174.04 
L 85.656909 174.04 
L 85.656909 174.04 
L 84.515606 174.04 
z
" style="fill:#1f77b4;"/>
   </g>
   <g id="patch_24">
    <path clip-path="url(#pe2d31fe65a)" d="M 85.656909 174.04 
L 86.798212 174.04 
L 86.798212 174.04 
L 85.656909 174.04 
z
" style="fill:#1f77b4;"/>
   </g>
   <g id="patch_25">
    <path clip-path="url(#pe2d31fe65a)" d="M 86.798212 174.04 
L 87.939515 174.04 
L 87.939515 174.04 
L 86.798212 174.04 
z
" style="fill:#1f77b4;"/>
   </g>
   <g id="patch_26">
    <path clip-path="url(#pe2d31fe65a)" d="M 87.939515 174.04 
L 89.080818 174.04 
L 89.080818 174.04 
L 87.939515 174.04 
z
" style="fill:#1f77b4;"/>
   </g>
   <g id="patch_27">
    <path clip-path="url(#pe2d31fe65a)" d="M 89.080818 174.04 
L 90.222121 174.04 
L 90.222121 174.04 
L 89.080818 174.04 
z
" style="fill:#1f77b4;"/>
   </g>
   <g id="patch_28">
    <path clip-path="url(#pe2d31fe65a)" d="M 90.222121 174.04 
L 91.363424 174.04 
L 91.363424 174.04 
L 90.222121 174.04 
z
" style="fill:#1f77b4;"/>
   </g>
   <g id="patch_29">
    <path clip-path="url(#pe2d31fe65a)" d="M 91.363424 174.04 
L 92.504727 174.04 
L 92.504727 174.04 
L 91.363424 174.04 
z
" style="fill:#1f77b4;"/>
   </g>
   <g id="patch_30">
    <path clip-path="url(#pe2d31fe65a)" d="M 92.504727 174.04 
L 93.64603 174.04 
L 93.64603 174.04 
L 92.504727 174.04 
z
" style="fill:#1f77b4;"/>
   </g>
   <g id="patch_31">
    <path clip-path="url(#pe2d31fe65a)" d="M 93.64603 174.04 
L 94.787333 174.04 
L 94.787333 174.04 
L 93.64603 174.04 
z
" style="fill:#1f77b4;"/>
   </g>
   <g id="patch_32">
    <path clip-path="url(#pe2d31fe65a)" d="M 94.787333 174.04 
L 95.928636 174.04 
L 95.928636 174.04 
L 94.787333 174.04 
z
" style="fill:#1f77b4;"/>
   </g>
   <g id="patch_33">
    <path clip-path="url(#pe2d31fe65a)" d="M 95.928636 174.04 
L 97.069939 174.04 
L 97.069939 174.04 
L 95.928636 174.04 
z
" style="fill:#1f77b4;"/>
   </g>
   <g id="patch_34">
    <path clip-path="url(#pe2d31fe65a)" d="M 97.069939 174.04 
L 98.211242 174.04 
L 98.211242 174.04 
L 97.069939 174.04 
z
" style="fill:#1f77b4;"/>
   </g>
   <g id="patch_35">
    <path clip-path="url(#pe2d31fe65a)" d="M 98.211242 174.04 
L 99.352545 174.04 
L 99.352545 174.04 
L 98.211242 174.04 
z
" style="fill:#1f77b4;"/>
   </g>
   <g id="patch_36">
    <path clip-path="url(#pe2d31fe65a)" d="M 99.352545 174.04 
L 100.493848 174.04 
L 100.493848 174.04 
L 99.352545 174.04 
z
" style="fill:#1f77b4;"/>
   </g>
   <g id="patch_37">
    <path clip-path="url(#pe2d31fe65a)" d="M 100.493848 174.04 
L 101.635152 174.04 
L 101.635152 174.04 
L 100.493848 174.04 
z
" style="fill:#1f77b4;"/>
   </g>
   <g id="patch_38">
    <path clip-path="url(#pe2d31fe65a)" d="M 101.635152 174.04 
L 102.776455 174.04 
L 102.776455 174.04 
L 101.635152 174.04 
z
" style="fill:#1f77b4;"/>
   </g>
   <g id="patch_39">
    <path clip-path="url(#pe2d31fe65a)" d="M 102.776455 174.04 
L 103.917758 174.04 
L 103.917758 174.04 
L 102.776455 174.04 
z
" style="fill:#1f77b4;"/>
   </g>
   <g id="patch_40">
    <path clip-path="url(#pe2d31fe65a)" d="M 103.917758 174.04 
L 105.059061 174.04 
L 105.059061 174.04 
L 103.917758 174.04 
z
" style="fill:#1f77b4;"/>
   </g>
   <g id="patch_41">
    <path clip-path="url(#pe2d31fe65a)" d="M 105.059061 174.04 
L 106.200364 174.04 
L 106.200364 174.04 
L 105.059061 174.04 
z
" style="fill:#1f77b4;"/>
   </g>
   <g id="patch_42">
    <path clip-path="url(#pe2d31fe65a)" d="M 106.200364 174.04 
L 107.341667 174.04 
L 107.341667 174.04 
L 106.200364 174.04 
z
" style="fill:#1f77b4;"/>
   </g>
   <g id="patch_43">
    <path clip-path="url(#pe2d31fe65a)" d="M 107.341667 174.04 
L 108.48297 174.04 
L 108.48297 174.04 
L 107.341667 174.04 
z
" style="fill:#1f77b4;"/>
   </g>
   <g id="patch_44">
    <path clip-path="url(#pe2d31fe65a)" d="M 108.48297 174.04 
L 109.624273 174.04 
L 109.624273 174.04 
L 108.48297 174.04 
z
" style="fill:#1f77b4;"/>
   </g>
   <g id="patch_45">
    <path clip-path="url(#pe2d31fe65a)" d="M 109.624273 174.04 
L 110.765576 174.04 
L 110.765576 174.04 
L 109.624273 174.04 
z
" style="fill:#1f77b4;"/>
   </g>
   <g id="patch_46">
    <path clip-path="url(#pe2d31fe65a)" d="M 110.765576 174.04 
L 111.906879 174.04 
L 111.906879 174.04 
L 110.765576 174.04 
z
" style="fill:#1f77b4;"/>
   </g>
   <g id="patch_47">
    <path clip-path="url(#pe2d31fe65a)" d="M 111.906879 174.04 
L 113.048182 174.04 
L 113.048182 174.04 
L 111.906879 174.04 
z
" style="fill:#1f77b4;"/>
   </g>
   <g id="patch_48">
    <path clip-path="url(#pe2d31fe65a)" d="M 113.048182 174.04 
L 114.189485 174.04 
L 114.189485 174.04 
L 113.048182 174.04 
z
" style="fill:#1f77b4;"/>
   </g>
   <g id="patch_49">
    <path clip-path="url(#pe2d31fe65a)" d="M 114.189485 174.04 
L 115.330788 174.04 
L 115.330788 174.04 
L 114.189485 174.04 
z
" style="fill:#1f77b4;"/>
   </g>
   <g id="patch_50">
    <path clip-path="url(#pe2d31fe65a)" d="M 115.330788 174.04 
L 116.472091 174.04 
L 116.472091 174.04 
L 115.330788 174.04 
z
" style="fill:#1f77b4;"/>
   </g>
   <g id="patch_51">
    <path clip-path="url(#pe2d31fe65a)" d="M 116.472091 174.04 
L 117.613394 174.04 
L 117.613394 174.04 
L 116.472091 174.04 
z
" style="fill:#1f77b4;"/>
   </g>
   <g id="patch_52">
    <path clip-path="url(#pe2d31fe65a)" d="M 117.613394 174.04 
L 118.754697 174.04 
L 118.754697 174.04 
L 117.613394 174.04 
z
" style="fill:#1f77b4;"/>
   </g>
   <g id="patch_53">
    <path clip-path="url(#pe2d31fe65a)" d="M 118.754697 174.04 
L 119.896 174.04 
L 119.896 174.04 
L 118.754697 174.04 
z
" style="fill:#1f77b4;"/>
   </g>
   <g id="patch_54">
    <path clip-path="url(#pe2d31fe65a)" d="M 119.896 174.04 
L 121.037303 174.04 
L 121.037303 174.04 
L 119.896 174.04 
z
" style="fill:#1f77b4;"/>
   </g>
   <g id="patch_55">
    <path clip-path="url(#pe2d31fe65a)" d="M 121.037303 174.04 
L 122.178606 174.04 
L 122.178606 174.04 
L 121.037303 174.04 
z
" style="fill:#1f77b4;"/>
   </g>
   <g id="patch_56">
    <path clip-path="url(#pe2d31fe65a)" d="M 122.178606 174.04 
L 123.319909 174.04 
L 123.319909 174.04 
L 122.178606 174.04 
z
" style="fill:#1f77b4;"/>
   </g>
   <g id="patch_57">
    <path clip-path="url(#pe2d31fe65a)" d="M 123.319909 174.04 
L 124.461212 174.04 
L 124.461212 174.04 
L 123.319909 174.04 
z
" style="fill:#1f77b4;"/>
   </g>
   <g id="patch_58">
    <path clip-path="url(#pe2d31fe65a)" d="M 124.461212 174.04 
L 125.602515 174.04 
L 125.602515 174.04 
L 124.461212 174.04 
z
" style="fill:#1f77b4;"/>
   </g>
   <g id="patch_59">
    <path clip-path="url(#pe2d31fe65a)" d="M 125.602515 174.04 
L 126.743818 174.04 
L 126.743818 174.04 
L 125.602515 174.04 
z
" style="fill:#1f77b4;"/>
   </g>
   <g id="patch_60">
    <path clip-path="url(#pe2d31fe65a)" d="M 126.743818 174.04 
L 127.885121 174.04 
L 127.885121 174.04 
L 126.743818 174.04 
z
" style="fill:#1f77b4;"/>
   </g>
   <g id="patch_61">
    <path clip-path="url(#pe2d31fe65a)" d="M 127.885121 174.04 
L 129.026424 174.04 
L 129.026424 174.04 
L 127.885121 174.04 
z
" style="fill:#1f77b4;"/>
   </g>
   <g id="patch_62">
    <path clip-path="url(#pe2d31fe65a)" d="M 129.026424 174.04 
L 130.167727 174.04 
L 130.167727 174.04 
L 129.026424 174.04 
z
" style="fill:#1f77b4;"/>
   </g>
   <g id="patch_63">
    <path clip-path="url(#pe2d31fe65a)" d="M 130.167727 174.04 
L 131.30903 174.04 
L 131.30903 174.04 
L 130.167727 174.04 
z
" style="fill:#1f77b4;"/>
   </g>
   <g id="patch_64">
    <path clip-path="url(#pe2d31fe65a)" d="M 131.30903 174.04 
L 132.450333 174.04 
L 132.450333 174.04 
L 131.30903 174.04 
z
" style="fill:#1f77b4;"/>
   </g>
   <g id="patch_65">
    <path clip-path="url(#pe2d31fe65a)" d="M 132.450333 174.04 
L 133.591636 174.04 
L 133.591636 174.04 
L 132.450333 174.04 
z
" style="fill:#1f77b4;"/>
   </g>
   <g id="patch_66">
    <path clip-path="url(#pe2d31fe65a)" d="M 133.591636 174.04 
L 134.732939 174.04 
L 134.732939 174.04 
L 133.591636 174.04 
z
" style="fill:#1f77b4;"/>
   </g>
   <g id="patch_67">
    <path clip-path="url(#pe2d31fe65a)" d="M 134.732939 174.04 
L 135.874242 174.04 
L 135.874242 174.04 
L 134.732939 174.04 
z
" style="fill:#1f77b4;"/>
   </g>
   <g id="patch_68">
    <path clip-path="url(#pe2d31fe65a)" d="M 135.874242 174.04 
L 137.015545 174.04 
L 137.015545 174.04 
L 135.874242 174.04 
z
" style="fill:#1f77b4;"/>
   </g>
   <g id="patch_69">
    <path clip-path="url(#pe2d31fe65a)" d="M 137.015545 174.04 
L 138.156848 174.04 
L 138.156848 174.04 
L 137.015545 174.04 
z
" style="fill:#1f77b4;"/>
   </g>
   <g id="patch_70">
    <path clip-path="url(#pe2d31fe65a)" d="M 138.156848 174.04 
L 139.298152 174.04 
L 139.298152 172.834832 
L 138.156848 172.834832 
z
" style="fill:#1f77b4;"/>
   </g>
   <g id="patch_71">
    <path clip-path="url(#pe2d31fe65a)" d="M 139.298152 174.04 
L 140.439455 174.04 
L 140.439455 172.834832 
L 139.298152 172.834832 
z
" style="fill:#1f77b4;"/>
   </g>
   <g id="patch_72">
    <path clip-path="url(#pe2d31fe65a)" d="M 140.439455 174.04 
L 141.580758 174.04 
L 141.580758 172.834832 
L 140.439455 172.834832 
z
" style="fill:#1f77b4;"/>
   </g>
   <g id="patch_73">
    <path clip-path="url(#pe2d31fe65a)" d="M 141.580758 174.04 
L 142.722061 174.04 
L 142.722061 172.834832 
L 141.580758 172.834832 
z
" style="fill:#1f77b4;"/>
   </g>
   <g id="patch_74">
    <path clip-path="url(#pe2d31fe65a)" d="M 142.722061 174.04 
L 143.863364 174.04 
L 143.863364 172.834832 
L 142.722061 172.834832 
z
" style="fill:#1f77b4;"/>
   </g>
   <g id="patch_75">
    <path clip-path="url(#pe2d31fe65a)" d="M 143.863364 174.04 
L 145.004667 174.04 
L 145.004667 172.834832 
L 143.863364 172.834832 
z
" style="fill:#1f77b4;"/>
   </g>
   <g id="patch_76">
    <path clip-path="url(#pe2d31fe65a)" d="M 145.004667 174.04 
L 146.14597 174.04 
L 146.14597 172.834832 
L 145.004667 172.834832 
z
" style="fill:#1f77b4;"/>
   </g>
   <g id="patch_77">
    <path clip-path="url(#pe2d31fe65a)" d="M 146.14597 174.04 
L 147.287273 174.04 
L 147.287273 172.834832 
L 146.14597 172.834832 
z
" style="fill:#1f77b4;"/>
   </g>
   <g id="patch_78">
    <path clip-path="url(#pe2d31fe65a)" d="M 147.287273 174.04 
L 148.428576 174.04 
L 148.428576 172.834832 
L 147.287273 172.834832 
z
" style="fill:#1f77b4;"/>
   </g>
   <g id="patch_79">
    <path clip-path="url(#pe2d31fe65a)" d="M 148.428576 174.04 
L 149.569879 174.04 
L 149.569879 172.834832 
L 148.428576 172.834832 
z
" style="fill:#1f77b4;"/>
   </g>
   <g id="patch_80">
    <path clip-path="url(#pe2d31fe65a)" d="M 149.569879 174.04 
L 150.711182 174.04 
L 150.711182 172.834832 
L 149.569879 172.834832 
z
" style="fill:#1f77b4;"/>
   </g>
   <g id="patch_81">
    <path clip-path="url(#pe2d31fe65a)" d="M 150.711182 174.04 
L 151.852485 174.04 
L 151.852485 172.834832 
L 150.711182 172.834832 
z
" style="fill:#1f77b4;"/>
   </g>
   <g id="patch_82">
    <path clip-path="url(#pe2d31fe65a)" d="M 151.852485 174.04 
L 152.993788 174.04 
L 152.993788 172.834832 
L 151.852485 172.834832 
z
" style="fill:#1f77b4;"/>
   </g>
   <g id="patch_83">
    <path clip-path="url(#pe2d31fe65a)" d="M 152.993788 174.04 
L 154.135091 174.04 
L 154.135091 172.834832 
L 152.993788 172.834832 
z
" style="fill:#1f77b4;"/>
   </g>
   <g id="patch_84">
    <path clip-path="url(#pe2d31fe65a)" d="M 154.135091 174.04 
L 155.276394 174.04 
L 155.276394 172.834832 
L 154.135091 172.834832 
z
" style="fill:#1f77b4;"/>
   </g>
   <g id="patch_85">
    <path clip-path="url(#pe2d31fe65a)" d="M 155.276394 174.04 
L 156.417697 174.04 
L 156.417697 172.834832 
L 155.276394 172.834832 
z
" style="fill:#1f77b4;"/>
   </g>
   <g id="patch_86">
    <path clip-path="url(#pe2d31fe65a)" d="M 156.417697 174.04 
L 157.559 174.04 
L 157.559 172.834832 
L 156.417697 172.834832 
z
" style="fill:#1f77b4;"/>
   </g>
   <g id="patch_87">
    <path clip-path="url(#pe2d31fe65a)" d="M 157.559 174.04 
L 158.700303 174.04 
L 158.700303 172.834832 
L 157.559 172.834832 
z
" style="fill:#1f77b4;"/>
   </g>
   <g id="patch_88">
    <path clip-path="url(#pe2d31fe65a)" d="M 158.700303 174.04 
L 159.841606 174.04 
L 159.841606 172.834832 
L 158.700303 172.834832 
z
" style="fill:#1f77b4;"/>
   </g>
   <g id="patch_89">
    <path clip-path="url(#pe2d31fe65a)" d="M 159.841606 174.04 
L 160.982909 174.04 
L 160.982909 172.834832 
L 159.841606 172.834832 
z
" style="fill:#1f77b4;"/>
   </g>
   <g id="patch_90">
    <path clip-path="url(#pe2d31fe65a)" d="M 160.982909 174.04 
L 162.124212 174.04 
L 162.124212 172.834832 
L 160.982909 172.834832 
z
" style="fill:#1f77b4;"/>
   </g>
   <g id="patch_91">
    <path clip-path="url(#pe2d31fe65a)" d="M 162.124212 174.04 
L 163.265515 174.04 
L 163.265515 172.834832 
L 162.124212 172.834832 
z
" style="fill:#1f77b4;"/>
   </g>
   <g id="patch_92">
    <path clip-path="url(#pe2d31fe65a)" d="M 163.265515 174.04 
L 164.406818 174.04 
L 164.406818 172.834832 
L 163.265515 172.834832 
z
" style="fill:#1f77b4;"/>
   </g>
   <g id="patch_93">
    <path clip-path="url(#pe2d31fe65a)" d="M 164.406818 174.04 
L 165.548121 174.04 
L 165.548121 172.834832 
L 164.406818 172.834832 
z
" style="fill:#1f77b4;"/>
   </g>
   <g id="patch_94">
    <path clip-path="url(#pe2d31fe65a)" d="M 165.548121 174.04 
L 166.689424 174.04 
L 166.689424 172.834832 
L 165.548121 172.834832 
z
" style="fill:#1f77b4;"/>
   </g>
   <g id="patch_95">
    <path clip-path="url(#pe2d31fe65a)" d="M 166.689424 174.04 
L 167.830727 174.04 
L 167.830727 172.834832 
L 166.689424 172.834832 
z
" style="fill:#1f77b4;"/>
   </g>
   <g id="patch_96">
    <path clip-path="url(#pe2d31fe65a)" d="M 167.830727 174.04 
L 168.97203 174.04 
L 168.97203 172.834832 
L 167.830727 172.834832 
z
" style="fill:#1f77b4;"/>
   </g>
   <g id="patch_97">
    <path clip-path="url(#pe2d31fe65a)" d="M 168.97203 174.04 
L 170.113333 174.04 
L 170.113333 172.834832 
L 168.97203 172.834832 
z
" style="fill:#1f77b4;"/>
   </g>
   <g id="patch_98">
    <path clip-path="url(#pe2d31fe65a)" d="M 170.113333 174.04 
L 171.254636 174.04 
L 171.254636 172.834832 
L 170.113333 172.834832 
z
" style="fill:#1f77b4;"/>
   </g>
   <g id="patch_99">
    <path clip-path="url(#pe2d31fe65a)" d="M 171.254636 174.04 
L 172.395939 174.04 
L 172.395939 172.834832 
L 171.254636 172.834832 
z
" style="fill:#1f77b4;"/>
   </g>
   <g id="patch_100">
    <path clip-path="url(#pe2d31fe65a)" d="M 172.395939 174.04 
L 173.537242 174.04 
L 173.537242 172.834832 
L 172.395939 172.834832 
z
" style="fill:#1f77b4;"/>
   </g>
   <g id="patch_101">
    <path clip-path="url(#pe2d31fe65a)" d="M 173.537242 174.04 
L 174.678545 174.04 
L 174.678545 172.834832 
L 173.537242 172.834832 
z
" style="fill:#1f77b4;"/>
   </g>
   <g id="patch_102">
    <path clip-path="url(#pe2d31fe65a)" d="M 174.678545 174.04 
L 175.819848 174.04 
L 175.819848 172.834832 
L 174.678545 172.834832 
z
" style="fill:#1f77b4;"/>
   </g>
   <g id="patch_103">
    <path clip-path="url(#pe2d31fe65a)" d="M 175.819848 174.04 
L 176.961152 174.04 
L 176.961152 172.834832 
L 175.819848 172.834832 
z
" style="fill:#1f77b4;"/>
   </g>
   <g id="patch_104">
    <path clip-path="url(#pe2d31fe65a)" d="M 176.961152 174.04 
L 178.102455 174.04 
L 178.102455 172.834832 
L 176.961152 172.834832 
z
" style="fill:#1f77b4;"/>
   </g>
   <g id="patch_105">
    <path clip-path="url(#pe2d31fe65a)" d="M 178.102455 174.04 
L 179.243758 174.04 
L 179.243758 172.834832 
L 178.102455 172.834832 
z
" style="fill:#1f77b4;"/>
   </g>
   <g id="patch_106">
    <path clip-path="url(#pe2d31fe65a)" d="M 179.243758 174.04 
L 180.385061 174.04 
L 180.385061 172.834832 
L 179.243758 172.834832 
z
" style="fill:#1f77b4;"/>
   </g>
   <g id="patch_107">
    <path clip-path="url(#pe2d31fe65a)" d="M 180.385061 174.04 
L 181.526364 174.04 
L 181.526364 172.834832 
L 180.385061 172.834832 
z
" style="fill:#1f77b4;"/>
   </g>
   <g id="patch_108">
    <path clip-path="url(#pe2d31fe65a)" d="M 181.526364 174.04 
L 182.667667 174.04 
L 182.667667 172.834832 
L 181.526364 172.834832 
z
" style="fill:#1f77b4;"/>
   </g>
   <g id="patch_109">
    <path clip-path="url(#pe2d31fe65a)" d="M 182.667667 174.04 
L 183.80897 174.04 
L 183.80897 172.834832 
L 182.667667 172.834832 
z
" style="fill:#1f77b4;"/>
   </g>
   <g id="patch_110">
    <path clip-path="url(#pe2d31fe65a)" d="M 183.80897 174.04 
L 184.950273 174.04 
L 184.950273 172.834832 
L 183.80897 172.834832 
z
" style="fill:#1f77b4;"/>
   </g>
   <g id="patch_111">
    <path clip-path="url(#pe2d31fe65a)" d="M 184.950273 174.04 
L 186.091576 174.04 
L 186.091576 172.834832 
L 184.950273 172.834832 
z
" style="fill:#1f77b4;"/>
   </g>
   <g id="patch_112">
    <path clip-path="url(#pe2d31fe65a)" d="M 186.091576 174.04 
L 187.232879 174.04 
L 187.232879 172.834832 
L 186.091576 172.834832 
z
" style="fill:#1f77b4;"/>
   </g>
   <g id="patch_113">
    <path clip-path="url(#pe2d31fe65a)" d="M 187.232879 174.04 
L 188.374182 174.04 
L 188.374182 172.834832 
L 187.232879 172.834832 
z
" style="fill:#1f77b4;"/>
   </g>
   <g id="patch_114">
    <path clip-path="url(#pe2d31fe65a)" d="M 188.374182 174.04 
L 189.515485 174.04 
L 189.515485 172.834832 
L 188.374182 172.834832 
z
" style="fill:#1f77b4;"/>
   </g>
   <g id="patch_115">
    <path clip-path="url(#pe2d31fe65a)" d="M 189.515485 174.04 
L 190.656788 174.04 
L 190.656788 172.834832 
L 189.515485 172.834832 
z
" style="fill:#1f77b4;"/>
   </g>
   <g id="patch_116">
    <path clip-path="url(#pe2d31fe65a)" d="M 190.656788 174.04 
L 191.798091 174.04 
L 191.798091 172.834832 
L 190.656788 172.834832 
z
" style="fill:#1f77b4;"/>
   </g>
   <g id="patch_117">
    <path clip-path="url(#pe2d31fe65a)" d="M 191.798091 174.04 
L 192.939394 174.04 
L 192.939394 172.834832 
L 191.798091 172.834832 
z
" style="fill:#1f77b4;"/>
   </g>
   <g id="patch_118">
    <path clip-path="url(#pe2d31fe65a)" d="M 192.939394 174.04 
L 194.080697 174.04 
L 194.080697 172.834832 
L 192.939394 172.834832 
z
" style="fill:#1f77b4;"/>
   </g>
   <g id="patch_119">
    <path clip-path="url(#pe2d31fe65a)" d="M 194.080697 174.04 
L 195.222 174.04 
L 195.222 172.834832 
L 194.080697 172.834832 
z
" style="fill:#1f77b4;"/>
   </g>
   <g id="patch_120">
    <path clip-path="url(#pe2d31fe65a)" d="M 195.222 174.04 
L 196.363303 174.04 
L 196.363303 172.834832 
L 195.222 172.834832 
z
" style="fill:#1f77b4;"/>
   </g>
   <g id="patch_121">
    <path clip-path="url(#pe2d31fe65a)" d="M 196.363303 174.04 
L 197.504606 174.04 
L 197.504606 172.834832 
L 196.363303 172.834832 
z
" style="fill:#1f77b4;"/>
   </g>
   <g id="patch_122">
    <path clip-path="url(#pe2d31fe65a)" d="M 197.504606 174.04 
L 198.645909 174.04 
L 198.645909 171.629664 
L 197.504606 171.629664 
z
" style="fill:#1f77b4;"/>
   </g>
   <g id="patch_123">
    <path clip-path="url(#pe2d31fe65a)" d="M 198.645909 174.04 
L 199.787212 174.04 
L 199.787212 171.629664 
L 198.645909 171.629664 
z
" style="fill:#1f77b4;"/>
   </g>
   <g id="patch_124">
    <path clip-path="url(#pe2d31fe65a)" d="M 199.787212 174.04 
L 200.928515 174.04 
L 200.928515 171.629664 
L 199.787212 171.629664 
z
" style="fill:#1f77b4;"/>
   </g>
   <g id="patch_125">
    <path clip-path="url(#pe2d31fe65a)" d="M 200.928515 174.04 
L 202.069818 174.04 
L 202.069818 171.629664 
L 200.928515 171.629664 
z
" style="fill:#1f77b4;"/>
   </g>
   <g id="patch_126">
    <path clip-path="url(#pe2d31fe65a)" d="M 202.069818 174.04 
L 203.211121 174.04 
L 203.211121 171.629664 
L 202.069818 171.629664 
z
" style="fill:#1f77b4;"/>
   </g>
   <g id="patch_127">
    <path clip-path="url(#pe2d31fe65a)" d="M 203.211121 174.04 
L 204.352424 174.04 
L 204.352424 171.629664 
L 203.211121 171.629664 
z
" style="fill:#1f77b4;"/>
   </g>
   <g id="patch_128">
    <path clip-path="url(#pe2d31fe65a)" d="M 204.352424 174.04 
L 205.493727 174.04 
L 205.493727 171.629664 
L 204.352424 171.629664 
z
" style="fill:#1f77b4;"/>
   </g>
   <g id="patch_129">
    <path clip-path="url(#pe2d31fe65a)" d="M 205.493727 174.04 
L 206.63503 174.04 
L 206.63503 171.629664 
L 205.493727 171.629664 
z
" style="fill:#1f77b4;"/>
   </g>
   <g id="patch_130">
    <path clip-path="url(#pe2d31fe65a)" d="M 206.63503 174.04 
L 207.776333 174.04 
L 207.776333 171.629664 
L 206.63503 171.629664 
z
" style="fill:#1f77b4;"/>
   </g>
   <g id="patch_131">
    <path clip-path="url(#pe2d31fe65a)" d="M 207.776333 174.04 
L 208.917636 174.04 
L 208.917636 171.629664 
L 207.776333 171.629664 
z
" style="fill:#1f77b4;"/>
   </g>
   <g id="patch_132">
    <path clip-path="url(#pe2d31fe65a)" d="M 208.917636 174.04 
L 210.058939 174.04 
L 210.058939 171.629664 
L 208.917636 171.629664 
z
" style="fill:#1f77b4;"/>
   </g>
   <g id="patch_133">
    <path clip-path="url(#pe2d31fe65a)" d="M 210.058939 174.04 
L 211.200242 174.04 
L 211.200242 171.629664 
L 210.058939 171.629664 
z
" style="fill:#1f77b4;"/>
   </g>
   <g id="patch_134">
    <path clip-path="url(#pe2d31fe65a)" d="M 211.200242 174.04 
L 212.341545 174.04 
L 212.341545 171.629664 
L 211.200242 171.629664 
z
" style="fill:#1f77b4;"/>
   </g>
   <g id="patch_135">
    <path clip-path="url(#pe2d31fe65a)" d="M 212.341545 174.04 
L 213.482848 174.04 
L 213.482848 171.629664 
L 212.341545 171.629664 
z
" style="fill:#1f77b4;"/>
   </g>
   <g id="patch_136">
    <path clip-path="url(#pe2d31fe65a)" d="M 213.482848 174.04 
L 214.624152 174.04 
L 214.624152 171.629664 
L 213.482848 171.629664 
z
" style="fill:#1f77b4;"/>
   </g>
   <g id="patch_137">
    <path clip-path="url(#pe2d31fe65a)" d="M 214.624152 174.04 
L 215.765455 174.04 
L 215.765455 171.629664 
L 214.624152 171.629664 
z
" style="fill:#1f77b4;"/>
   </g>
   <g id="patch_138">
    <path clip-path="url(#pe2d31fe65a)" d="M 215.765455 174.04 
L 216.906758 174.04 
L 216.906758 171.629664 
L 215.765455 171.629664 
z
" style="fill:#1f77b4;"/>
   </g>
   <g id="patch_139">
    <path clip-path="url(#pe2d31fe65a)" d="M 216.906758 174.04 
L 218.048061 174.04 
L 218.048061 171.629664 
L 216.906758 171.629664 
z
" style="fill:#1f77b4;"/>
   </g>
   <g id="patch_140">
    <path clip-path="url(#pe2d31fe65a)" d="M 218.048061 174.04 
L 219.189364 174.04 
L 219.189364 171.629664 
L 218.048061 171.629664 
z
" style="fill:#1f77b4;"/>
   </g>
   <g id="patch_141">
    <path clip-path="url(#pe2d31fe65a)" d="M 219.189364 174.04 
L 220.330667 174.04 
L 220.330667 171.629664 
L 219.189364 171.629664 
z
" style="fill:#1f77b4;"/>
   </g>
   <g id="patch_142">
    <path clip-path="url(#pe2d31fe65a)" d="M 220.330667 174.04 
L 221.47197 174.04 
L 221.47197 171.629664 
L 220.330667 171.629664 
z
" style="fill:#1f77b4;"/>
   </g>
   <g id="patch_143">
    <path clip-path="url(#pe2d31fe65a)" d="M 221.47197 174.04 
L 222.613273 174.04 
L 222.613273 171.629664 
L 221.47197 171.629664 
z
" style="fill:#1f77b4;"/>
   </g>
   <g id="patch_144">
    <path clip-path="url(#pe2d31fe65a)" d="M 222.613273 174.04 
L 223.754576 174.04 
L 223.754576 171.629664 
L 222.613273 171.629664 
z
" style="fill:#1f77b4;"/>
   </g>
   <g id="patch_145">
    <path clip-path="url(#pe2d31fe65a)" d="M 223.754576 174.04 
L 224.895879 174.04 
L 224.895879 171.629664 
L 223.754576 171.629664 
z
" style="fill:#1f77b4;"/>
   </g>
   <g id="patch_146">
    <path clip-path="url(#pe2d31fe65a)" d="M 224.895879 174.04 
L 226.037182 174.04 
L 226.037182 171.629664 
L 224.895879 171.629664 
z
" style="fill:#1f77b4;"/>
   </g>
   <g id="patch_147">
    <path clip-path="url(#pe2d31fe65a)" d="M 226.037182 174.04 
L 227.178485 174.04 
L 227.178485 171.629664 
L 226.037182 171.629664 
z
" style="fill:#1f77b4;"/>
   </g>
   <g id="patch_148">
    <path clip-path="url(#pe2d31fe65a)" d="M 227.178485 174.04 
L 228.319788 174.04 
L 228.319788 171.629664 
L 227.178485 171.629664 
z
" style="fill:#1f77b4;"/>
   </g>
   <g id="patch_149">
    <path clip-path="url(#pe2d31fe65a)" d="M 228.319788 174.04 
L 229.461091 174.04 
L 229.461091 171.629664 
L 228.319788 171.629664 
z
" style="fill:#1f77b4;"/>
   </g>
   <g id="patch_150">
    <path clip-path="url(#pe2d31fe65a)" d="M 229.461091 174.04 
L 230.602394 174.04 
L 230.602394 171.629664 
L 229.461091 171.629664 
z
" style="fill:#1f77b4;"/>
   </g>
   <g id="patch_151">
    <path clip-path="url(#pe2d31fe65a)" d="M 230.602394 174.04 
L 231.743697 174.04 
L 231.743697 171.629664 
L 230.602394 171.629664 
z
" style="fill:#1f77b4;"/>
   </g>
   <g id="patch_152">
    <path clip-path="url(#pe2d31fe65a)" d="M 231.743697 174.04 
L 232.885 174.04 
L 232.885 171.629664 
L 231.743697 171.629664 
z
" style="fill:#1f77b4;"/>
   </g>
   <g id="patch_153">
    <path clip-path="url(#pe2d31fe65a)" d="M 232.885 174.04 
L 234.026303 174.04 
L 234.026303 171.629664 
L 232.885 171.629664 
z
" style="fill:#1f77b4;"/>
   </g>
   <g id="patch_154">
    <path clip-path="url(#pe2d31fe65a)" d="M 234.026303 174.04 
L 235.167606 174.04 
L 235.167606 171.629664 
L 234.026303 171.629664 
z
" style="fill:#1f77b4;"/>
   </g>
   <g id="patch_155">
    <path clip-path="url(#pe2d31fe65a)" d="M 235.167606 174.04 
L 236.308909 174.04 
L 236.308909 171.629664 
L 235.167606 171.629664 
z
" style="fill:#1f77b4;"/>
   </g>
   <g id="patch_156">
    <path clip-path="url(#pe2d31fe65a)" d="M 236.308909 174.04 
L 237.450212 174.04 
L 237.450212 171.629664 
L 236.308909 171.629664 
z
" style="fill:#1f77b4;"/>
   </g>
   <g id="patch_157">
    <path clip-path="url(#pe2d31fe65a)" d="M 237.450212 174.04 
L 238.591515 174.04 
L 238.591515 171.629664 
L 237.450212 171.629664 
z
" style="fill:#1f77b4;"/>
   </g>
   <g id="patch_158">
    <path clip-path="url(#pe2d31fe65a)" d="M 238.591515 174.04 
L 239.732818 174.04 
L 239.732818 171.629664 
L 238.591515 171.629664 
z
" style="fill:#1f77b4;"/>
   </g>
   <g id="patch_159">
    <path clip-path="url(#pe2d31fe65a)" d="M 239.732818 174.04 
L 240.874121 174.04 
L 240.874121 171.629664 
L 239.732818 171.629664 
z
" style="fill:#1f77b4;"/>
   </g>
   <g id="patch_160">
    <path clip-path="url(#pe2d31fe65a)" d="M 240.874121 174.04 
L 242.015424 174.04 
L 242.015424 171.629664 
L 240.874121 171.629664 
z
" style="fill:#1f77b4;"/>
   </g>
   <g id="patch_161">
    <path clip-path="url(#pe2d31fe65a)" d="M 242.015424 174.04 
L 243.156727 174.04 
L 243.156727 171.629664 
L 242.015424 171.629664 
z
" style="fill:#1f77b4;"/>
   </g>
   <g id="patch_162">
    <path clip-path="url(#pe2d31fe65a)" d="M 243.156727 174.04 
L 244.29803 174.04 
L 244.29803 171.629664 
L 243.156727 171.629664 
z
" style="fill:#1f77b4;"/>
   </g>
   <g id="patch_163">
    <path clip-path="url(#pe2d31fe65a)" d="M 244.29803 174.04 
L 245.439333 174.04 
L 245.439333 171.629664 
L 244.29803 171.629664 
z
" style="fill:#1f77b4;"/>
   </g>
   <g id="patch_164">
    <path clip-path="url(#pe2d31fe65a)" d="M 245.439333 174.04 
L 246.580636 174.04 
L 246.580636 171.629664 
L 245.439333 171.629664 
z
" style="fill:#1f77b4;"/>
   </g>
   <g id="patch_165">
    <path clip-path="url(#pe2d31fe65a)" d="M 246.580636 174.04 
L 247.721939 174.04 
L 247.721939 171.629664 
L 246.580636 171.629664 
z
" style="fill:#1f77b4;"/>
   </g>
   <g id="patch_166">
    <path clip-path="url(#pe2d31fe65a)" d="M 247.721939 174.04 
L 248.863242 174.04 
L 248.863242 171.629664 
L 247.721939 171.629664 
z
" style="fill:#1f77b4;"/>
   </g>
   <g id="patch_167">
    <path clip-path="url(#pe2d31fe65a)" d="M 248.863242 174.04 
L 250.004545 174.04 
L 250.004545 171.629664 
L 248.863242 171.629664 
z
" style="fill:#1f77b4;"/>
   </g>
   <g id="patch_168">
    <path clip-path="url(#pe2d31fe65a)" d="M 250.004545 174.04 
L 251.145848 174.04 
L 251.145848 171.629664 
L 250.004545 171.629664 
z
" style="fill:#1f77b4;"/>
   </g>
   <g id="patch_169">
    <path clip-path="url(#pe2d31fe65a)" d="M 251.145848 174.04 
L 252.287152 174.04 
L 252.287152 171.629664 
L 251.145848 171.629664 
z
" style="fill:#1f77b4;"/>
   </g>
   <g id="patch_170">
    <path clip-path="url(#pe2d31fe65a)" d="M 252.287152 174.04 
L 253.428455 174.04 
L 253.428455 171.629664 
L 252.287152 171.629664 
z
" style="fill:#1f77b4;"/>
   </g>
   <g id="patch_171">
    <path clip-path="url(#pe2d31fe65a)" d="M 253.428455 174.04 
L 254.569758 174.04 
L 254.569758 171.629664 
L 253.428455 171.629664 
z
" style="fill:#1f77b4;"/>
   </g>
   <g id="patch_172">
    <path clip-path="url(#pe2d31fe65a)" d="M 254.569758 174.04 
L 255.711061 174.04 
L 255.711061 171.629664 
L 254.569758 171.629664 
z
" style="fill:#1f77b4;"/>
   </g>
   <g id="patch_173">
    <path clip-path="url(#pe2d31fe65a)" d="M 255.711061 174.04 
L 256.852364 174.04 
L 256.852364 171.629664 
L 255.711061 171.629664 
z
" style="fill:#1f77b4;"/>
   </g>
   <g id="patch_174">
    <path clip-path="url(#pe2d31fe65a)" d="M 256.852364 174.04 
L 257.993667 174.04 
L 257.993667 171.629664 
L 256.852364 171.629664 
z
" style="fill:#1f77b4;"/>
   </g>
   <g id="patch_175">
    <path clip-path="url(#pe2d31fe65a)" d="M 257.993667 174.04 
L 259.13497 174.04 
L 259.13497 171.629664 
L 257.993667 171.629664 
z
" style="fill:#1f77b4;"/>
   </g>
   <g id="patch_176">
    <path clip-path="url(#pe2d31fe65a)" d="M 259.13497 174.04 
L 260.276273 174.04 
L 260.276273 171.629664 
L 259.13497 171.629664 
z
" style="fill:#1f77b4;"/>
   </g>
   <g id="patch_177">
    <path clip-path="url(#pe2d31fe65a)" d="M 260.276273 174.04 
L 261.417576 174.04 
L 261.417576 171.629664 
L 260.276273 171.629664 
z
" style="fill:#1f77b4;"/>
   </g>
   <g id="patch_178">
    <path clip-path="url(#pe2d31fe65a)" d="M 261.417576 174.04 
L 262.558879 174.04 
L 262.558879 171.629664 
L 261.417576 171.629664 
z
" style="fill:#1f77b4;"/>
   </g>
   <g id="patch_179">
    <path clip-path="url(#pe2d31fe65a)" d="M 262.558879 174.04 
L 263.700182 174.04 
L 263.700182 171.629664 
L 262.558879 171.629664 
z
" style="fill:#1f77b4;"/>
   </g>
   <g id="patch_180">
    <path clip-path="url(#pe2d31fe65a)" d="M 263.700182 174.04 
L 264.841485 174.04 
L 264.841485 171.629664 
L 263.700182 171.629664 
z
" style="fill:#1f77b4;"/>
   </g>
   <g id="patch_181">
    <path clip-path="url(#pe2d31fe65a)" d="M 264.841485 174.04 
L 265.982788 174.04 
L 265.982788 171.629664 
L 264.841485 171.629664 
z
" style="fill:#1f77b4;"/>
   </g>
   <g id="patch_182">
    <path clip-path="url(#pe2d31fe65a)" d="M 265.982788 174.04 
L 267.124091 174.04 
L 267.124091 171.629664 
L 265.982788 171.629664 
z
" style="fill:#1f77b4;"/>
   </g>
   <g id="patch_183">
    <path clip-path="url(#pe2d31fe65a)" d="M 267.124091 174.04 
L 268.265394 174.04 
L 268.265394 171.629664 
L 267.124091 171.629664 
z
" style="fill:#1f77b4;"/>
   </g>
   <g id="patch_184">
    <path clip-path="url(#pe2d31fe65a)" d="M 268.265394 174.04 
L 269.406697 174.04 
L 269.406697 171.629664 
L 268.265394 171.629664 
z
" style="fill:#1f77b4;"/>
   </g>
   <g id="patch_185">
    <path clip-path="url(#pe2d31fe65a)" d="M 269.406697 174.04 
L 270.548 174.04 
L 270.548 171.629664 
L 269.406697 171.629664 
z
" style="fill:#1f77b4;"/>
   </g>
   <g id="patch_186">
    <path clip-path="url(#pe2d31fe65a)" d="M 270.548 174.04 
L 271.689303 174.04 
L 271.689303 171.629664 
L 270.548 171.629664 
z
" style="fill:#1f77b4;"/>
   </g>
   <g id="patch_187">
    <path clip-path="url(#pe2d31fe65a)" d="M 271.689303 174.04 
L 272.830606 174.04 
L 272.830606 171.629664 
L 271.689303 171.629664 
z
" style="fill:#1f77b4;"/>
   </g>
   <g id="patch_188">
    <path clip-path="url(#pe2d31fe65a)" d="M 272.830606 174.04 
L 273.971909 174.04 
L 273.971909 171.629664 
L 272.830606 171.629664 
z
" style="fill:#1f77b4;"/>
   </g>
   <g id="patch_189">
    <path clip-path="url(#pe2d31fe65a)" d="M 273.971909 174.04 
L 275.113212 174.04 
L 275.113212 171.629664 
L 273.971909 171.629664 
z
" style="fill:#1f77b4;"/>
   </g>
   <g id="patch_190">
    <path clip-path="url(#pe2d31fe65a)" d="M 275.113212 174.04 
L 276.254515 174.04 
L 276.254515 171.629664 
L 275.113212 171.629664 
z
" style="fill:#1f77b4;"/>
   </g>
   <g id="patch_191">
    <path clip-path="url(#pe2d31fe65a)" d="M 276.254515 174.04 
L 277.395818 174.04 
L 277.395818 171.629664 
L 276.254515 171.629664 
z
" style="fill:#1f77b4;"/>
   </g>
   <g id="patch_192">
    <path clip-path="url(#pe2d31fe65a)" d="M 277.395818 174.04 
L 278.537121 174.04 
L 278.537121 171.629664 
L 277.395818 171.629664 
z
" style="fill:#1f77b4;"/>
   </g>
   <g id="patch_193">
    <path clip-path="url(#pe2d31fe65a)" d="M 278.537121 174.04 
L 279.678424 174.04 
L 279.678424 171.629664 
L 278.537121 171.629664 
z
" style="fill:#1f77b4;"/>
   </g>
   <g id="patch_194">
    <path clip-path="url(#pe2d31fe65a)" d="M 279.678424 174.04 
L 280.819727 174.04 
L 280.819727 171.629664 
L 279.678424 171.629664 
z
" style="fill:#1f77b4;"/>
   </g>
   <g id="patch_195">
    <path clip-path="url(#pe2d31fe65a)" d="M 280.819727 174.04 
L 281.96103 174.04 
L 281.96103 171.629664 
L 280.819727 171.629664 
z
" style="fill:#1f77b4;"/>
   </g>
   <g id="patch_196">
    <path clip-path="url(#pe2d31fe65a)" d="M 281.96103 174.04 
L 283.102333 174.04 
L 283.102333 171.629664 
L 281.96103 171.629664 
z
" style="fill:#1f77b4;"/>
   </g>
   <g id="patch_197">
    <path clip-path="url(#pe2d31fe65a)" d="M 283.102333 174.04 
L 284.243636 174.04 
L 284.243636 171.629664 
L 283.102333 171.629664 
z
" style="fill:#1f77b4;"/>
   </g>
   <g id="patch_198">
    <path clip-path="url(#pe2d31fe65a)" d="M 284.243636 174.04 
L 285.384939 174.04 
L 285.384939 171.629664 
L 284.243636 171.629664 
z
" style="fill:#1f77b4;"/>
   </g>
   <g id="patch_199">
    <path clip-path="url(#pe2d31fe65a)" d="M 285.384939 174.04 
L 286.526242 174.04 
L 286.526242 171.629664 
L 285.384939 171.629664 
z
" style="fill:#1f77b4;"/>
   </g>
   <g id="patch_200">
    <path clip-path="url(#pe2d31fe65a)" d="M 286.526242 174.04 
L 287.667545 174.04 
L 287.667545 171.629664 
L 286.526242 171.629664 
z
" style="fill:#1f77b4;"/>
   </g>
   <g id="patch_201">
    <path clip-path="url(#pe2d31fe65a)" d="M 287.667545 174.04 
L 288.808848 174.04 
L 288.808848 171.629664 
L 287.667545 171.629664 
z
" style="fill:#1f77b4;"/>
   </g>
   <g id="patch_202">
    <path clip-path="url(#pe2d31fe65a)" d="M 288.808848 174.04 
L 289.950152 174.04 
L 289.950152 170.424496 
L 288.808848 170.424496 
z
" style="fill:#1f77b4;"/>
   </g>
   <g id="patch_203">
    <path clip-path="url(#pe2d31fe65a)" d="M 289.950152 174.04 
L 291.091455 174.04 
L 291.091455 170.424496 
L 289.950152 170.424496 
z
" style="fill:#1f77b4;"/>
   </g>
   <g id="patch_204">
    <path clip-path="url(#pe2d31fe65a)" d="M 291.091455 174.04 
L 292.232758 174.04 
L 292.232758 168.01416 
L 291.091455 168.01416 
z
" style="fill:#1f77b4;"/>
   </g>
   <g id="patch_205">
    <path clip-path="url(#pe2d31fe65a)" d="M 292.232758 174.04 
L 293.374061 174.04 
L 293.374061 168.01416 
L 292.232758 168.01416 
z
" style="fill:#1f77b4;"/>
   </g>
   <g id="patch_206">
    <path clip-path="url(#pe2d31fe65a)" d="M 293.374061 174.04 
L 294.515364 174.04 
L 294.515364 168.01416 
L 293.374061 168.01416 
z
" style="fill:#1f77b4;"/>
   </g>
   <g id="patch_207">
    <path clip-path="url(#pe2d31fe65a)" d="M 294.515364 174.04 
L 295.656667 174.04 
L 295.656667 165.603824 
L 294.515364 165.603824 
z
" style="fill:#1f77b4;"/>
   </g>
   <g id="patch_208">
    <path clip-path="url(#pe2d31fe65a)" d="M 295.656667 174.04 
L 296.79797 174.04 
L 296.79797 165.603824 
L 295.656667 165.603824 
z
" style="fill:#1f77b4;"/>
   </g>
   <g id="patch_209">
    <path clip-path="url(#pe2d31fe65a)" d="M 296.79797 174.04 
L 297.939273 174.04 
L 297.939273 164.398656 
L 296.79797 164.398656 
z
" style="fill:#1f77b4;"/>
   </g>
   <g id="patch_210">
    <path clip-path="url(#pe2d31fe65a)" d="M 297.939273 174.04 
L 299.080576 174.04 
L 299.080576 163.193488 
L 297.939273 163.193488 
z
" style="fill:#1f77b4;"/>
   </g>
   <g id="patch_211">
    <path clip-path="url(#pe2d31fe65a)" d="M 299.080576 174.04 
L 300.221879 174.04 
L 300.221879 163.193488 
L 299.080576 163.193488 
z
" style="fill:#1f77b4;"/>
   </g>
   <g id="patch_212">
    <path clip-path="url(#pe2d31fe65a)" d="M 300.221879 174.04 
L 301.363182 174.04 
L 301.363182 160.783152 
L 300.221879 160.783152 
z
" style="fill:#1f77b4;"/>
   </g>
   <g id="patch_213">
    <path clip-path="url(#pe2d31fe65a)" d="M 301.363182 174.04 
L 302.504485 174.04 
L 302.504485 159.577984 
L 301.363182 159.577984 
z
" style="fill:#1f77b4;"/>
   </g>
   <g id="patch_214">
    <path clip-path="url(#pe2d31fe65a)" d="M 302.504485 174.04 
L 303.645788 174.04 
L 303.645788 159.577984 
L 302.504485 159.577984 
z
" style="fill:#1f77b4;"/>
   </g>
   <g id="patch_215">
    <path clip-path="url(#pe2d31fe65a)" d="M 303.645788 174.04 
L 304.787091 174.04 
L 304.787091 158.372817 
L 303.645788 158.372817 
z
" style="fill:#1f77b4;"/>
   </g>
   <g id="patch_216">
    <path clip-path="url(#pe2d31fe65a)" d="M 304.787091 174.04 
L 305.928394 174.04 
L 305.928394 158.372817 
L 304.787091 158.372817 
z
" style="fill:#1f77b4;"/>
   </g>
   <g id="patch_217">
    <path clip-path="url(#pe2d31fe65a)" d="M 305.928394 174.04 
L 307.069697 174.04 
L 307.069697 158.372817 
L 305.928394 158.372817 
z
" style="fill:#1f77b4;"/>
   </g>
   <g id="patch_218">
    <path clip-path="url(#pe2d31fe65a)" d="M 307.069697 174.04 
L 308.211 174.04 
L 308.211 155.962481 
L 307.069697 155.962481 
z
" style="fill:#1f77b4;"/>
   </g>
   <g id="patch_219">
    <path clip-path="url(#pe2d31fe65a)" d="M 308.211 174.04 
L 309.352303 174.04 
L 309.352303 154.757313 
L 308.211 154.757313 
z
" style="fill:#1f77b4;"/>
   </g>
   <g id="patch_220">
    <path clip-path="url(#pe2d31fe65a)" d="M 309.352303 174.04 
L 310.493606 174.04 
L 310.493606 152.346977 
L 309.352303 152.346977 
z
" style="fill:#1f77b4;"/>
   </g>
   <g id="patch_221">
    <path clip-path="url(#pe2d31fe65a)" d="M 310.493606 174.04 
L 311.634909 174.04 
L 311.634909 152.346977 
L 310.493606 152.346977 
z
" style="fill:#1f77b4;"/>
   </g>
   <g id="patch_222">
    <path clip-path="url(#pe2d31fe65a)" d="M 311.634909 174.04 
L 312.776212 174.04 
L 312.776212 152.346977 
L 311.634909 152.346977 
z
" style="fill:#1f77b4;"/>
   </g>
   <g id="patch_223">
    <path clip-path="url(#pe2d31fe65a)" d="M 312.776212 174.04 
L 313.917515 174.04 
L 313.917515 151.141809 
L 312.776212 151.141809 
z
" style="fill:#1f77b4;"/>
   </g>
   <g id="patch_224">
    <path clip-path="url(#pe2d31fe65a)" d="M 313.917515 174.04 
L 315.058818 174.04 
L 315.058818 148.731473 
L 313.917515 148.731473 
z
" style="fill:#1f77b4;"/>
   </g>
   <g id="patch_225">
    <path clip-path="url(#pe2d31fe65a)" d="M 315.058818 174.04 
L 316.200121 174.04 
L 316.200121 147.526305 
L 315.058818 147.526305 
z
" style="fill:#1f77b4;"/>
   </g>
   <g id="patch_226">
    <path clip-path="url(#pe2d31fe65a)" d="M 316.200121 174.04 
L 317.341424 174.04 
L 317.341424 147.526305 
L 316.200121 147.526305 
z
" style="fill:#1f77b4;"/>
   </g>
   <g id="patch_227">
    <path clip-path="url(#pe2d31fe65a)" d="M 317.341424 174.04 
L 318.482727 174.04 
L 318.482727 147.526305 
L 317.341424 147.526305 
z
" style="fill:#1f77b4;"/>
   </g>
   <g id="patch_228">
    <path clip-path="url(#pe2d31fe65a)" d="M 318.482727 174.04 
L 319.62403 174.04 
L 319.62403 147.526305 
L 318.482727 147.526305 
z
" style="fill:#1f77b4;"/>
   </g>
   <g id="patch_229">
    <path clip-path="url(#pe2d31fe65a)" d="M 319.62403 174.04 
L 320.765333 174.04 
L 320.765333 147.526305 
L 319.62403 147.526305 
z
" style="fill:#1f77b4;"/>
   </g>
   <g id="patch_230">
    <path clip-path="url(#pe2d31fe65a)" d="M 320.765333 174.04 
L 321.906636 174.04 
L 321.906636 147.526305 
L 320.765333 147.526305 
z
" style="fill:#1f77b4;"/>
   </g>
   <g id="patch_231">
    <path clip-path="url(#pe2d31fe65a)" d="M 321.906636 174.04 
L 323.047939 174.04 
L 323.047939 147.526305 
L 321.906636 147.526305 
z
" style="fill:#1f77b4;"/>
   </g>
   <g id="patch_232">
    <path clip-path="url(#pe2d31fe65a)" d="M 323.047939 174.04 
L 324.189242 174.04 
L 324.189242 146.321137 
L 323.047939 146.321137 
z
" style="fill:#1f77b4;"/>
   </g>
   <g id="patch_233">
    <path clip-path="url(#pe2d31fe65a)" d="M 324.189242 174.04 
L 325.330545 174.04 
L 325.330545 146.321137 
L 324.189242 146.321137 
z
" style="fill:#1f77b4;"/>
   </g>
   <g id="patch_234">
    <path clip-path="url(#pe2d31fe65a)" d="M 325.330545 174.04 
L 326.471848 174.04 
L 326.471848 145.115969 
L 325.330545 145.115969 
z
" style="fill:#1f77b4;"/>
   </g>
   <g id="patch_235">
    <path clip-path="url(#pe2d31fe65a)" d="M 326.471848 174.04 
L 327.613152 174.04 
L 327.613152 143.910801 
L 326.471848 143.910801 
z
" style="fill:#1f77b4;"/>
   </g>
   <g id="patch_236">
    <path clip-path="url(#pe2d31fe65a)" d="M 327.613152 174.04 
L 328.754455 174.04 
L 328.754455 143.910801 
L 327.613152 143.910801 
z
" style="fill:#1f77b4;"/>
   </g>
   <g id="patch_237">
    <path clip-path="url(#pe2d31fe65a)" d="M 328.754455 174.04 
L 329.895758 174.04 
L 329.895758 143.910801 
L 328.754455 143.910801 
z
" style="fill:#1f77b4;"/>
   </g>
   <g id="patch_238">
    <path clip-path="url(#pe2d31fe65a)" d="M 329.895758 174.04 
L 331.037061 174.04 
L 331.037061 143.910801 
L 329.895758 143.910801 
z
" style="fill:#1f77b4;"/>
   </g>
   <g id="patch_239">
    <path clip-path="url(#pe2d31fe65a)" d="M 331.037061 174.04 
L 332.178364 174.04 
L 332.178364 143.910801 
L 331.037061 143.910801 
z
" style="fill:#1f77b4;"/>
   </g>
   <g id="patch_240">
    <path clip-path="url(#pe2d31fe65a)" d="M 332.178364 174.04 
L 333.319667 174.04 
L 333.319667 143.910801 
L 332.178364 143.910801 
z
" style="fill:#1f77b4;"/>
   </g>
   <g id="patch_241">
    <path clip-path="url(#pe2d31fe65a)" d="M 333.319667 174.04 
L 334.46097 174.04 
L 334.46097 143.910801 
L 333.319667 143.910801 
z
" style="fill:#1f77b4;"/>
   </g>
   <g id="patch_242">
    <path clip-path="url(#pe2d31fe65a)" d="M 334.46097 174.04 
L 335.602273 174.04 
L 335.602273 143.910801 
L 334.46097 143.910801 
z
" style="fill:#1f77b4;"/>
   </g>
   <g id="patch_243">
    <path clip-path="url(#pe2d31fe65a)" d="M 335.602273 174.04 
L 336.743576 174.04 
L 336.743576 143.910801 
L 335.602273 143.910801 
z
" style="fill:#1f77b4;"/>
   </g>
   <g id="patch_244">
    <path clip-path="url(#pe2d31fe65a)" d="M 336.743576 174.04 
L 337.884879 174.04 
L 337.884879 142.705633 
L 336.743576 142.705633 
z
" style="fill:#1f77b4;"/>
   </g>
   <g id="patch_245">
    <path clip-path="url(#pe2d31fe65a)" d="M 337.884879 174.04 
L 339.026182 174.04 
L 339.026182 142.705633 
L 337.884879 142.705633 
z
" style="fill:#1f77b4;"/>
   </g>
   <g id="patch_246">
    <path clip-path="url(#pe2d31fe65a)" d="M 339.026182 174.04 
L 340.167485 174.04 
L 340.167485 140.295297 
L 339.026182 140.295297 
z
" style="fill:#1f77b4;"/>
   </g>
   <g id="patch_247">
    <path clip-path="url(#pe2d31fe65a)" d="M 340.167485 174.04 
L 341.308788 174.04 
L 341.308788 139.090129 
L 340.167485 139.090129 
z
" style="fill:#1f77b4;"/>
   </g>
   <g id="patch_248">
    <path clip-path="url(#pe2d31fe65a)" d="M 341.308788 174.04 
L 342.450091 174.04 
L 342.450091 139.090129 
L 341.308788 139.090129 
z
" style="fill:#1f77b4;"/>
   </g>
   <g id="patch_249">
    <path clip-path="url(#pe2d31fe65a)" d="M 342.450091 174.04 
L 343.591394 174.04 
L 343.591394 136.679793 
L 342.450091 136.679793 
z
" style="fill:#1f77b4;"/>
   </g>
   <g id="patch_250">
    <path clip-path="url(#pe2d31fe65a)" d="M 343.591394 174.04 
L 344.732697 174.04 
L 344.732697 136.679793 
L 343.591394 136.679793 
z
" style="fill:#1f77b4;"/>
   </g>
   <g id="patch_251">
    <path clip-path="url(#pe2d31fe65a)" d="M 344.732697 174.04 
L 345.874 174.04 
L 345.874 135.474625 
L 344.732697 135.474625 
z
" style="fill:#1f77b4;"/>
   </g>
   <g id="patch_252">
    <path clip-path="url(#pe2d31fe65a)" d="M 345.874 174.04 
L 347.015303 174.04 
L 347.015303 135.474625 
L 345.874 135.474625 
z
" style="fill:#1f77b4;"/>
   </g>
   <g id="patch_253">
    <path clip-path="url(#pe2d31fe65a)" d="M 347.015303 174.04 
L 348.156606 174.04 
L 348.156606 133.064289 
L 347.015303 133.064289 
z
" style="fill:#1f77b4;"/>
   </g>
   <g id="patch_254">
    <path clip-path="url(#pe2d31fe65a)" d="M 348.156606 174.04 
L 349.297909 174.04 
L 349.297909 131.859121 
L 348.156606 131.859121 
z
" style="fill:#1f77b4;"/>
   </g>
   <g id="patch_255">
    <path clip-path="url(#pe2d31fe65a)" d="M 349.297909 174.04 
L 350.439212 174.04 
L 350.439212 130.653953 
L 349.297909 130.653953 
z
" style="fill:#1f77b4;"/>
   </g>
   <g id="patch_256">
    <path clip-path="url(#pe2d31fe65a)" d="M 350.439212 174.04 
L 351.580515 174.04 
L 351.580515 130.653953 
L 350.439212 130.653953 
z
" style="fill:#1f77b4;"/>
   </g>
   <g id="patch_257">
    <path clip-path="url(#pe2d31fe65a)" d="M 351.580515 174.04 
L 352.721818 174.04 
L 352.721818 130.653953 
L 351.580515 130.653953 
z
" style="fill:#1f77b4;"/>
   </g>
   <g id="patch_258">
    <path clip-path="url(#pe2d31fe65a)" d="M 352.721818 174.04 
L 353.863121 174.04 
L 353.863121 129.448786 
L 352.721818 129.448786 
z
" style="fill:#1f77b4;"/>
   </g>
   <g id="patch_259">
    <path clip-path="url(#pe2d31fe65a)" d="M 353.863121 174.04 
L 355.004424 174.04 
L 355.004424 129.448786 
L 353.863121 129.448786 
z
" style="fill:#1f77b4;"/>
   </g>
   <g id="patch_260">
    <path clip-path="url(#pe2d31fe65a)" d="M 355.004424 174.04 
L 356.145727 174.04 
L 356.145727 129.448786 
L 355.004424 129.448786 
z
" style="fill:#1f77b4;"/>
   </g>
   <g id="patch_261">
    <path clip-path="url(#pe2d31fe65a)" d="M 356.145727 174.04 
L 357.28703 174.04 
L 357.28703 129.448786 
L 356.145727 129.448786 
z
" style="fill:#1f77b4;"/>
   </g>
   <g id="patch_262">
    <path clip-path="url(#pe2d31fe65a)" d="M 357.28703 174.04 
L 358.428333 174.04 
L 358.428333 129.448786 
L 357.28703 129.448786 
z
" style="fill:#1f77b4;"/>
   </g>
   <g id="patch_263">
    <path clip-path="url(#pe2d31fe65a)" d="M 358.428333 174.04 
L 359.569636 174.04 
L 359.569636 129.448786 
L 358.428333 129.448786 
z
" style="fill:#1f77b4;"/>
   </g>
   <g id="patch_264">
    <path clip-path="url(#pe2d31fe65a)" d="M 359.569636 174.04 
L 360.710939 174.04 
L 360.710939 128.243618 
L 359.569636 128.243618 
z
" style="fill:#1f77b4;"/>
   </g>
   <g id="patch_265">
    <path clip-path="url(#pe2d31fe65a)" d="M 360.710939 174.04 
L 361.852242 174.04 
L 361.852242 128.243618 
L 360.710939 128.243618 
z
" style="fill:#1f77b4;"/>
   </g>
   <g id="patch_266">
    <path clip-path="url(#pe2d31fe65a)" d="M 361.852242 174.04 
L 362.993545 174.04 
L 362.993545 128.243618 
L 361.852242 128.243618 
z
" style="fill:#1f77b4;"/>
   </g>
   <g id="patch_267">
    <path clip-path="url(#pe2d31fe65a)" d="M 362.993545 174.04 
L 364.134848 174.04 
L 364.134848 128.243618 
L 362.993545 128.243618 
z
" style="fill:#1f77b4;"/>
   </g>
   <g id="patch_268">
    <path clip-path="url(#pe2d31fe65a)" d="M 364.134848 174.04 
L 365.276152 174.04 
L 365.276152 128.243618 
L 364.134848 128.243618 
z
" style="fill:#1f77b4;"/>
   </g>
   <g id="patch_269">
    <path clip-path="url(#pe2d31fe65a)" d="M 365.276152 174.04 
L 366.417455 174.04 
L 366.417455 128.243618 
L 365.276152 128.243618 
z
" style="fill:#1f77b4;"/>
   </g>
   <g id="patch_270">
    <path clip-path="url(#pe2d31fe65a)" d="M 366.417455 174.04 
L 367.558758 174.04 
L 367.558758 128.243618 
L 366.417455 128.243618 
z
" style="fill:#1f77b4;"/>
   </g>
   <g id="patch_271">
    <path clip-path="url(#pe2d31fe65a)" d="M 367.558758 174.04 
L 368.700061 174.04 
L 368.700061 128.243618 
L 367.558758 128.243618 
z
" style="fill:#1f77b4;"/>
   </g>
   <g id="patch_272">
    <path clip-path="url(#pe2d31fe65a)" d="M 368.700061 174.04 
L 369.841364 174.04 
L 369.841364 128.243618 
L 368.700061 128.243618 
z
" style="fill:#1f77b4;"/>
   </g>
   <g id="patch_273">
    <path clip-path="url(#pe2d31fe65a)" d="M 369.841364 174.04 
L 370.982667 174.04 
L 370.982667 128.243618 
L 369.841364 128.243618 
z
" style="fill:#1f77b4;"/>
   </g>
   <g id="patch_274">
    <path clip-path="url(#pe2d31fe65a)" d="M 370.982667 174.04 
L 372.12397 174.04 
L 372.12397 128.243618 
L 370.982667 128.243618 
z
" style="fill:#1f77b4;"/>
   </g>
   <g id="patch_275">
    <path clip-path="url(#pe2d31fe65a)" d="M 372.12397 174.04 
L 373.265273 174.04 
L 373.265273 128.243618 
L 372.12397 128.243618 
z
" style="fill:#1f77b4;"/>
   </g>
   <g id="patch_276">
    <path clip-path="url(#pe2d31fe65a)" d="M 373.265273 174.04 
L 374.406576 174.04 
L 374.406576 128.243618 
L 373.265273 128.243618 
z
" style="fill:#1f77b4;"/>
   </g>
   <g id="patch_277">
    <path clip-path="url(#pe2d31fe65a)" d="M 374.406576 174.04 
L 375.547879 174.04 
L 375.547879 128.243618 
L 374.406576 128.243618 
z
" style="fill:#1f77b4;"/>
   </g>
   <g id="patch_278">
    <path clip-path="url(#pe2d31fe65a)" d="M 375.547879 174.04 
L 376.689182 174.04 
L 376.689182 128.243618 
L 375.547879 128.243618 
z
" style="fill:#1f77b4;"/>
   </g>
   <g id="patch_279">
    <path clip-path="url(#pe2d31fe65a)" d="M 376.689182 174.04 
L 377.830485 174.04 
L 377.830485 128.243618 
L 376.689182 128.243618 
z
" style="fill:#1f77b4;"/>
   </g>
   <g id="patch_280">
    <path clip-path="url(#pe2d31fe65a)" d="M 377.830485 174.04 
L 378.971788 174.04 
L 378.971788 128.243618 
L 377.830485 128.243618 
z
" style="fill:#1f77b4;"/>
   </g>
   <g id="patch_281">
    <path clip-path="url(#pe2d31fe65a)" d="M 378.971788 174.04 
L 380.113091 174.04 
L 380.113091 128.243618 
L 378.971788 128.243618 
z
" style="fill:#1f77b4;"/>
   </g>
   <g id="patch_282">
    <path clip-path="url(#pe2d31fe65a)" d="M 380.113091 174.04 
L 381.254394 174.04 
L 381.254394 128.243618 
L 380.113091 128.243618 
z
" style="fill:#1f77b4;"/>
   </g>
   <g id="patch_283">
    <path clip-path="url(#pe2d31fe65a)" d="M 381.254394 174.04 
L 382.395697 174.04 
L 382.395697 128.243618 
L 381.254394 128.243618 
z
" style="fill:#1f77b4;"/>
   </g>
   <g id="patch_284">
    <path clip-path="url(#pe2d31fe65a)" d="M 382.395697 174.04 
L 383.537 174.04 
L 383.537 94.498915 
L 382.395697 94.498915 
z
" style="fill:#ff7f0e;"/>
   </g>
   <g id="patch_285">
    <path clip-path="url(#pe2d31fe65a)" d="M 383.537 174.04 
L 384.678303 174.04 
L 384.678303 93.293747 
L 383.537 93.293747 
z
" style="fill:#ff7f0e;"/>
   </g>
   <g id="patch_286">
    <path clip-path="url(#pe2d31fe65a)" d="M 384.678303 174.04 
L 385.819606 174.04 
L 385.819606 80.036899 
L 384.678303 80.036899 
z
" style="fill:#ff7f0e;"/>
   </g>
   <g id="patch_287">
    <path clip-path="url(#pe2d31fe65a)" d="M 385.819606 174.04 
L 386.960909 174.04 
L 386.960909 78.831731 
L 385.819606 78.831731 
z
" style="fill:#ff7f0e;"/>
   </g>
   <g id="patch_288">
    <path clip-path="url(#pe2d31fe65a)" d="M 386.960909 174.04 
L 388.102212 174.04 
L 388.102212 70.395556 
L 386.960909 70.395556 
z
" style="fill:#ff7f0e;"/>
   </g>
   <g id="patch_289">
    <path clip-path="url(#pe2d31fe65a)" d="M 388.102212 174.04 
L 389.243515 174.04 
L 389.243515 67.98522 
L 388.102212 67.98522 
z
" style="fill:#ff7f0e;"/>
   </g>
   <g id="patch_290">
    <path clip-path="url(#pe2d31fe65a)" d="M 389.243515 174.04 
L 390.384818 174.04 
L 390.384818 67.98522 
L 389.243515 67.98522 
z
" style="fill:#ff7f0e;"/>
   </g>
   <g id="patch_291">
    <path clip-path="url(#pe2d31fe65a)" d="M 390.384818 174.04 
L 391.526121 174.04 
L 391.526121 66.780052 
L 390.384818 66.780052 
z
" style="fill:#ff7f0e;"/>
   </g>
   <g id="patch_292">
    <path clip-path="url(#pe2d31fe65a)" d="M 391.526121 174.04 
L 392.667424 174.04 
L 392.667424 65.574884 
L 391.526121 65.574884 
z
" style="fill:#ff7f0e;"/>
   </g>
   <g id="patch_293">
    <path clip-path="url(#pe2d31fe65a)" d="M 392.667424 174.04 
L 393.808727 174.04 
L 393.808727 63.164548 
L 392.667424 63.164548 
z
" style="fill:#ff7f0e;"/>
   </g>
   <g id="patch_294">
    <path clip-path="url(#pe2d31fe65a)" d="M 393.808727 174.04 
L 394.95003 174.04 
L 394.95003 60.754212 
L 393.808727 60.754212 
z
" style="fill:#ff7f0e;"/>
   </g>
   <g id="patch_295">
    <path clip-path="url(#pe2d31fe65a)" d="M 394.95003 174.04 
L 396.091333 174.04 
L 396.091333 59.549044 
L 394.95003 59.549044 
z
" style="fill:#ff7f0e;"/>
   </g>
   <g id="patch_296">
    <path clip-path="url(#pe2d31fe65a)" d="M 396.091333 174.04 
L 397.232636 174.04 
L 397.232636 57.138708 
L 396.091333 57.138708 
z
" style="fill:#ff7f0e;"/>
   </g>
   <g id="patch_297">
    <path clip-path="url(#pe2d31fe65a)" d="M 397.232636 174.04 
L 398.373939 174.04 
L 398.373939 52.318036 
L 397.232636 52.318036 
z
" style="fill:#ff7f0e;"/>
   </g>
   <g id="patch_298">
    <path clip-path="url(#pe2d31fe65a)" d="M 398.373939 174.04 
L 399.515242 174.04 
L 399.515242 52.318036 
L 398.373939 52.318036 
z
" style="fill:#ff7f0e;"/>
   </g>
   <g id="patch_299">
    <path clip-path="url(#pe2d31fe65a)" d="M 399.515242 174.04 
L 400.656545 174.04 
L 400.656545 51.112868 
L 399.515242 51.112868 
z
" style="fill:#ff7f0e;"/>
   </g>
   <g id="patch_300">
    <path clip-path="url(#pe2d31fe65a)" d="M 400.656545 174.04 
L 401.797848 174.04 
L 401.797848 45.087028 
L 400.656545 45.087028 
z
" style="fill:#ff7f0e;"/>
   </g>
   <g id="patch_301">
    <path clip-path="url(#pe2d31fe65a)" d="M 401.797848 174.04 
L 402.939152 174.04 
L 402.939152 42.676693 
L 401.797848 42.676693 
z
" style="fill:#ff7f0e;"/>
   </g>
   <g id="patch_302">
    <path clip-path="url(#pe2d31fe65a)" d="M 402.939152 174.04 
L 404.080455 174.04 
L 404.080455 18.573333 
L 402.939152 18.573333 
z
" style="fill:#ff7f0e;"/>
   </g>
   <g id="matplotlib.axis_1">
    <g id="xtick_1">
     <g id="line2d_1">
      <defs>
       <path d="M 0 0 
L 0 3.5 
" id="m0324bb3268" style="stroke:#000000;stroke-width:0.8;"/>
      </defs>
      <g>
       <use style="stroke:#000000;stroke-width:0.8;" x="61.118894" xlink:href="#m0324bb3268" y="174.04"/>
      </g>
     </g>
     <g id="text_1">
      <text style="font-family:DejaVu Sans;font-size:10px;font-stretch:normal;font-style:normal;font-weight:normal;text-anchor:middle;" transform="rotate(-0, 61.118894, 188.638438)" x="61.118894" y="188.638438">0</text>
     </g>
    </g>
    <g id="xtick_2">
     <g id="line2d_2">
      <g>
       <use style="stroke:#000000;stroke-width:0.8;" x="118.184045" xlink:href="#m0324bb3268" y="174.04"/>
      </g>
     </g>
     <g id="text_2">
      <text style="font-family:DejaVu Sans;font-size:10px;font-stretch:normal;font-style:normal;font-weight:normal;text-anchor:middle;" transform="rotate(-0, 118.184045, 188.638438)" x="118.184045" y="188.638438">50</text>
     </g>
    </g>
    <g id="xtick_3">
     <g id="line2d_3">
      <g>
       <use style="stroke:#000000;stroke-width:0.8;" x="175.249197" xlink:href="#m0324bb3268" y="174.04"/>
      </g>
     </g>
     <g id="text_3">
      <text style="font-family:DejaVu Sans;font-size:10px;font-stretch:normal;font-style:normal;font-weight:normal;text-anchor:middle;" transform="rotate(-0, 175.249197, 188.638438)" x="175.249197" y="188.638438">100</text>
     </g>
    </g>
    <g id="xtick_4">
     <g id="line2d_4">
      <g>
       <use style="stroke:#000000;stroke-width:0.8;" x="232.314348" xlink:href="#m0324bb3268" y="174.04"/>
      </g>
     </g>
     <g id="text_4">
      <text style="font-family:DejaVu Sans;font-size:10px;font-stretch:normal;font-style:normal;font-weight:normal;text-anchor:middle;" transform="rotate(-0, 232.314348, 188.638438)" x="232.314348" y="188.638438">150</text>
     </g>
    </g>
    <g id="xtick_5">
     <g id="line2d_5">
      <g>
       <use style="stroke:#000000;stroke-width:0.8;" x="289.3795" xlink:href="#m0324bb3268" y="174.04"/>
      </g>
     </g>
     <g id="text_5">
      <text style="font-family:DejaVu Sans;font-size:10px;font-stretch:normal;font-style:normal;font-weight:normal;text-anchor:middle;" transform="rotate(-0, 289.3795, 188.638438)" x="289.3795" y="188.638438">200</text>
     </g>
    </g>
    <g id="xtick_6">
     <g id="line2d_6">
      <g>
       <use style="stroke:#000000;stroke-width:0.8;" x="346.444652" xlink:href="#m0324bb3268" y="174.04"/>
      </g>
     </g>
     <g id="text_6">
      <text style="font-family:DejaVu Sans;font-size:10px;font-stretch:normal;font-style:normal;font-weight:normal;text-anchor:middle;" transform="rotate(-0, 346.444652, 188.638438)" x="346.444652" y="188.638438">250</text>
     </g>
    </g>
    <g id="xtick_7">
     <g id="line2d_7">
      <g>
       <use style="stroke:#000000;stroke-width:0.8;" x="403.509803" xlink:href="#m0324bb3268" y="174.04"/>
      </g>
     </g>
     <g id="text_7">
      <text style="font-family:DejaVu Sans;font-size:10px;font-stretch:normal;font-style:normal;font-weight:normal;text-anchor:middle;" transform="rotate(-0, 403.509803, 188.638438)" x="403.509803" y="188.638438">300</text>
     </g>
    </g>
    <g id="text_8">
     <text style="font-family:DejaVu Sans;font-size:10px;font-stretch:normal;font-style:normal;font-weight:normal;text-anchor:middle;" transform="rotate(-0, 232.885, 202.316563)" x="232.885" y="202.316563">Sorted scenario number</text>
    </g>
   </g>
   <g id="matplotlib.axis_2">
    <g id="ytick_1">
     <g id="line2d_8">
      <defs>
       <path d="M 0 0 
L -3.5 0 
" id="m3f342492ba" style="stroke:#000000;stroke-width:0.8;"/>
      </defs>
      <g>
       <use style="stroke:#000000;stroke-width:0.8;" x="44.57" xlink:href="#m3f342492ba" y="174.04"/>
      </g>
     </g>
     <g id="text_9">
      <text style="font-family:DejaVu Sans;font-size:10px;font-stretch:normal;font-style:normal;font-weight:normal;text-anchor:end;" transform="rotate(-0, 37.57, 177.839219)" x="37.57" y="177.839219">0</text>
     </g>
    </g>
    <g id="ytick_2">
     <g id="line2d_9">
      <g>
       <use style="stroke:#000000;stroke-width:0.8;" x="44.57" xlink:href="#m3f342492ba" y="149.936641"/>
      </g>
     </g>
     <g id="text_10">
      <text style="font-family:DejaVu Sans;font-size:10px;font-stretch:normal;font-style:normal;font-weight:normal;text-anchor:end;" transform="rotate(-0, 37.57, 153.73586)" x="37.57" y="153.73586">2</text>
     </g>
    </g>
    <g id="ytick_3">
     <g id="line2d_10">
      <g>
       <use style="stroke:#000000;stroke-width:0.8;" x="44.57" xlink:href="#m3f342492ba" y="125.833282"/>
      </g>
     </g>
     <g id="text_11">
      <text style="font-family:DejaVu Sans;font-size:10px;font-stretch:normal;font-style:normal;font-weight:normal;text-anchor:end;" transform="rotate(-0, 37.57, 129.6325)" x="37.57" y="129.6325">4</text>
     </g>
    </g>
    <g id="ytick_4">
     <g id="line2d_11">
      <g>
       <use style="stroke:#000000;stroke-width:0.8;" x="44.57" xlink:href="#m3f342492ba" y="101.729922"/>
      </g>
     </g>
     <g id="text_12">
      <text style="font-family:DejaVu Sans;font-size:10px;font-stretch:normal;font-style:normal;font-weight:normal;text-anchor:end;" transform="rotate(-0, 37.57, 105.529141)" x="37.57" y="105.529141">6</text>
     </g>
    </g>
    <g id="ytick_5">
     <g id="line2d_12">
      <g>
       <use style="stroke:#000000;stroke-width:0.8;" x="44.57" xlink:href="#m3f342492ba" y="77.626563"/>
      </g>
     </g>
     <g id="text_13">
      <text style="font-family:DejaVu Sans;font-size:10px;font-stretch:normal;font-style:normal;font-weight:normal;text-anchor:end;" transform="rotate(-0, 37.57, 81.425782)" x="37.57" y="81.425782">8</text>
     </g>
    </g>
    <g id="ytick_6">
     <g id="line2d_13">
      <g>
       <use style="stroke:#000000;stroke-width:0.8;" x="44.57" xlink:href="#m3f342492ba" y="53.523204"/>
      </g>
     </g>
     <g id="text_14">
      <text style="font-family:DejaVu Sans;font-size:10px;font-stretch:normal;font-style:normal;font-weight:normal;text-anchor:end;" transform="rotate(-0, 37.57, 57.322423)" x="37.57" y="57.322423">10</text>
     </g>
    </g>
    <g id="ytick_7">
     <g id="line2d_14">
      <g>
       <use style="stroke:#000000;stroke-width:0.8;" x="44.57" xlink:href="#m3f342492ba" y="29.419845"/>
      </g>
     </g>
     <g id="text_15">
      <text style="font-family:DejaVu Sans;font-size:10px;font-stretch:normal;font-style:normal;font-weight:normal;text-anchor:end;" transform="rotate(-0, 37.57, 33.219064)" x="37.57" y="33.219064">12</text>
     </g>
    </g>
    <g id="text_16">
     <text style="font-family:DejaVu Sans;font-size:10px;font-stretch:normal;font-style:normal;font-weight:normal;text-anchor:middle;" transform="rotate(-90, 18.765313, 92.42)" x="18.765313" y="92.42">Time difference [s]</text>
    </g>
   </g>
   <g id="patch_303">
    <path d="M 44.57 174.04 
L 44.57 10.8 
" style="fill:none;stroke:#000000;stroke-linecap:square;stroke-linejoin:miter;stroke-width:0.8;"/>
   </g>
   <g id="patch_304">
    <path d="M 421.2 174.04 
L 421.2 10.8 
" style="fill:none;stroke:#000000;stroke-linecap:square;stroke-linejoin:miter;stroke-width:0.8;"/>
   </g>
   <g id="patch_305">
    <path d="M 44.57 174.04 
L 421.2 174.04 
" style="fill:none;stroke:#000000;stroke-linecap:square;stroke-linejoin:miter;stroke-width:0.8;"/>
   </g>
   <g id="patch_306">
    <path d="M 44.57 10.8 
L 421.2 10.8 
" style="fill:none;stroke:#000000;stroke-linecap:square;stroke-linejoin:miter;stroke-width:0.8;"/>
   </g>
   <g id="legend_1">
    <g id="patch_307">
     <path d="M 51.57 48.15625 
L 151.01375 48.15625 
Q 153.01375 48.15625 153.01375 46.15625 
L 153.01375 17.8 
Q 153.01375 15.8 151.01375 15.8 
L 51.57 15.8 
Q 49.57 15.8 49.57 17.8 
L 49.57 46.15625 
Q 49.57 48.15625 51.57 48.15625 
z
" style="fill:#ffffff;opacity:0.8;stroke:#cccccc;stroke-linejoin:miter;"/>
    </g>
    <g id="patch_308">
     <path d="M 53.57 27.398438 
L 73.57 27.398438 
L 73.57 20.398438 
L 53.57 20.398438 
z
" style="fill:#1f77b4;"/>
    </g>
    <g id="text_17">
     <text style="font-family:DejaVu Sans;font-size:10px;font-stretch:normal;font-style:normal;font-weight:normal;text-anchor:start;" transform="rotate(-0, 81.57, 27.398438)" x="81.57" y="27.398438">No gap found</text>
    </g>
    <g id="patch_309">
     <path d="M 53.57 42.076562 
L 73.57 42.076562 
L 73.57 35.076562 
L 53.57 35.076562 
z
" style="fill:#ff7f0e;"/>
    </g>
    <g id="text_18">
     <text style="font-family:DejaVu Sans;font-size:10px;font-stretch:normal;font-style:normal;font-weight:normal;text-anchor:start;" transform="rotate(-0, 81.57, 42.076562)" x="81.57" y="42.076562">Gap found</text>
    </g>
   </g>
  </g>
 </g>
 <defs>
  <clipPath id="pe2d31fe65a">
   <rect height="163.24" width="376.63" x="44.57" y="10.8"/>
  </clipPath>
 </defs>
</svg>
