<?xml version="1.0" encoding="utf-8" standalone="no"?>
<!DOCTYPE svg PUBLIC "-//W3C//DTD SVG 1.1//EN"
  "http://www.w3.org/Graphics/SVG/1.1/DTD/svg11.dtd">
<!-- Created with matplotlib (https://matplotlib.org/) -->
<svg height="144pt" version="1.1" viewBox="0 0 432 144" width="432pt" xmlns="http://www.w3.org/2000/svg" xmlns:xlink="http://www.w3.org/1999/xlink">
 <metadata>
  <rdf:RDF xmlns:cc="http://creativecommons.org/ns#" xmlns:dc="http://purl.org/dc/elements/1.1/" xmlns:rdf="http://www.w3.org/1999/02/22-rdf-syntax-ns#">
   <cc:Work>
    <dc:type rdf:resource="http://purl.org/dc/dcmitype/StillImage"/>
    <dc:date>2021-10-20T10:36:57.969950</dc:date>
    <dc:format>image/svg+xml</dc:format>
    <dc:creator>
     <cc:Agent>
      <dc:title>Matplotlib v3.3.3, https://matplotlib.org/</dc:title>
     </cc:Agent>
    </dc:creator>
   </cc:Work>
  </rdf:RDF>
 </metadata>
 <defs>
  <style type="text/css">*{stroke-linecap:butt;stroke-linejoin:round;}</style>
 </defs>
 <g id="figure_1">
  <g id="patch_1">
   <path d="M 0 144 
L 432 144 
L 432 0 
L 0 0 
z
" style="fill:#ffffff;"/>
  </g>
  <g id="axes_1">
   <g id="patch_2">
    <path d="M 50.78 102.04 
L 421.2 102.04 
L 421.2 10.8 
L 50.78 10.8 
z
" style="fill:#ffffff;"/>
   </g>
   <g id="matplotlib.axis_1">
    <g id="xtick_1">
     <g id="line2d_1">
      <defs>
       <path d="M 0 0 
L 0 3.5 
" id="mb745f8717c" style="stroke:#000000;stroke-width:0.8;"/>
      </defs>
      <g>
       <use style="stroke:#000000;stroke-width:0.8;" x="66.093538" xlink:href="#mb745f8717c" y="102.04"/>
      </g>
     </g>
     <g id="text_1">
      <text style="font-family:DejaVu Sans;font-size:10px;font-stretch:normal;font-style:normal;font-weight:normal;text-anchor:middle;" transform="rotate(-0, 66.093538, 116.638437)" x="66.093538" y="116.638437">0</text>
     </g>
    </g>
    <g id="xtick_2">
     <g id="line2d_2">
      <g>
       <use style="stroke:#000000;stroke-width:0.8;" x="142.280292" xlink:href="#mb745f8717c" y="102.04"/>
      </g>
     </g>
     <g id="text_2">
      <text style="font-family:DejaVu Sans;font-size:10px;font-stretch:normal;font-style:normal;font-weight:normal;text-anchor:middle;" transform="rotate(-0, 142.280292, 116.638437)" x="142.280292" y="116.638437">5</text>
     </g>
    </g>
    <g id="xtick_3">
     <g id="line2d_3">
      <g>
       <use style="stroke:#000000;stroke-width:0.8;" x="218.467046" xlink:href="#mb745f8717c" y="102.04"/>
      </g>
     </g>
     <g id="text_3">
      <text style="font-family:DejaVu Sans;font-size:10px;font-stretch:normal;font-style:normal;font-weight:normal;text-anchor:middle;" transform="rotate(-0, 218.467046, 116.638437)" x="218.467046" y="116.638437">10</text>
     </g>
    </g>
    <g id="xtick_4">
     <g id="line2d_4">
      <g>
       <use style="stroke:#000000;stroke-width:0.8;" x="294.653801" xlink:href="#mb745f8717c" y="102.04"/>
      </g>
     </g>
     <g id="text_4">
      <text style="font-family:DejaVu Sans;font-size:10px;font-stretch:normal;font-style:normal;font-weight:normal;text-anchor:middle;" transform="rotate(-0, 294.653801, 116.638437)" x="294.653801" y="116.638437">15</text>
     </g>
    </g>
    <g id="xtick_5">
     <g id="line2d_5">
      <g>
       <use style="stroke:#000000;stroke-width:0.8;" x="370.840555" xlink:href="#mb745f8717c" y="102.04"/>
      </g>
     </g>
     <g id="text_5">
      <text style="font-family:DejaVu Sans;font-size:10px;font-stretch:normal;font-style:normal;font-weight:normal;text-anchor:middle;" transform="rotate(-0, 370.840555, 116.638437)" x="370.840555" y="116.638437">20</text>
     </g>
    </g>
    <g id="text_6">
     <text style="font-family:DejaVu Sans;font-size:10px;font-stretch:normal;font-style:normal;font-weight:normal;text-anchor:middle;" transform="rotate(-0, 235.99, 130.316563)" x="235.99" y="130.316563">Time [s]</text>
    </g>
   </g>
   <g id="matplotlib.axis_2">
    <g id="ytick_1">
     <g id="line2d_6">
      <defs>
       <path d="M 0 0 
L -3.5 0 
" id="m64b08dea1e" style="stroke:#000000;stroke-width:0.8;"/>
      </defs>
      <g>
       <use style="stroke:#000000;stroke-width:0.8;" x="50.78" xlink:href="#m64b08dea1e" y="97.892727"/>
      </g>
     </g>
     <g id="text_7">
      <text style="font-family:DejaVu Sans;font-size:10px;font-stretch:normal;font-style:normal;font-weight:normal;text-anchor:end;" transform="rotate(-0, 43.78, 101.691946)" x="43.78" y="101.691946">0</text>
     </g>
    </g>
    <g id="ytick_2">
     <g id="line2d_7">
      <g>
       <use style="stroke:#000000;stroke-width:0.8;" x="50.78" xlink:href="#m64b08dea1e" y="53.458641"/>
      </g>
     </g>
     <g id="text_8">
      <text style="font-family:DejaVu Sans;font-size:10px;font-stretch:normal;font-style:normal;font-weight:normal;text-anchor:end;" transform="rotate(-0, 43.78, 57.257859)" x="43.78" y="57.257859">500</text>
     </g>
    </g>
    <g id="text_9">
     <text style="font-family:DejaVu Sans;font-size:10px;font-stretch:normal;font-style:normal;font-weight:normal;text-anchor:middle;" transform="rotate(-90, 18.612813, 56.42)" x="18.612813" y="56.42">Occluded area [m^2]</text>
    </g>
   </g>
   <g id="line2d_8">
    <path clip-path="url(#pe548007d8b)" d="M 67.617273 97.892727 
L 69.141008 85.914037 
L 70.664743 85.737702 
L 72.188478 86.508829 
L 73.712213 87.420987 
L 76.759683 87.102498 
L 78.283418 86.04421 
L 79.807153 86.04942 
L 81.330889 86.828936 
L 82.854624 86.896732 
L 84.378359 85.464237 
L 87.425829 85.992029 
L 88.949564 85.482396 
L 90.473299 84.676196 
L 91.997034 86.004325 
L 93.520769 84.933577 
L 95.044504 84.735945 
L 96.568239 83.939914 
L 98.091974 84.837657 
L 99.61571 83.820086 
L 101.139445 83.917333 
L 102.66318 82.947221 
L 104.186915 81.615078 
L 105.71065 82.392794 
L 107.234385 81.842231 
L 108.75812 83.216316 
L 110.281855 82.984917 
L 111.80559 81.769463 
L 113.329325 82.226852 
L 114.85306 80.079555 
L 116.376796 81.694333 
L 117.900531 82.165283 
L 119.424266 82.436897 
L 120.948001 81.115487 
L 122.471736 81.208631 
L 123.995471 81.131165 
L 127.042941 79.728792 
L 130.090411 78.940465 
L 131.614146 78.28122 
L 133.137882 81.192653 
L 134.661617 80.97574 
L 136.185352 81.023637 
L 137.709087 80.905351 
L 139.232822 80.571079 
L 140.756557 81.464968 
L 142.280292 80.496572 
L 143.804027 80.104895 
L 145.327762 79.932261 
L 151.422703 78.886832 
L 152.946438 78.657997 
L 154.470173 77.798514 
L 157.517643 77.518005 
L 159.041378 80.250444 
L 160.565113 82.170386 
L 162.088848 81.879494 
L 165.136318 80.15291 
L 166.660053 77.818391 
L 168.183789 72.439213 
L 169.707524 68.61285 
L 171.231259 66.885355 
L 172.754994 70.800339 
L 174.278729 71.442603 
L 175.802464 82.201483 
L 177.326199 82.535953 
L 178.849934 82.054248 
L 181.897404 81.708728 
L 183.421139 84.249883 
L 184.944875 83.718843 
L 187.992345 83.426865 
L 189.51608 82.908856 
L 191.039815 82.760465 
L 192.56355 84.226475 
L 194.087285 84.068196 
L 195.61102 83.692553 
L 197.134755 84.890518 
L 198.65849 84.563751 
L 200.182225 84.371424 
L 201.705961 85.121368 
L 203.229696 84.779838 
L 204.753431 85.533135 
L 206.277166 85.211673 
L 207.800901 85.644184 
L 209.324636 85.355092 
L 210.848371 85.697239 
L 212.372106 85.502673 
L 213.895841 85.772056 
L 215.419576 85.497332 
L 218.467046 85.692829 
L 219.990782 85.447222 
L 224.561987 85.706349 
L 226.085722 85.685882 
L 227.609457 85.785362 
L 230.656927 85.792107 
L 232.180662 85.937947 
L 233.704397 85.939588 
L 236.751868 85.79647 
L 239.799338 85.964928 
L 242.846808 86.002196 
L 244.370543 85.779748 
L 248.941748 86.118807 
L 250.465483 85.904406 
L 251.989218 85.985542 
L 255.036689 85.774049 
L 256.560424 85.319789 
L 258.084159 84.33706 
L 259.607894 78.23491 
L 261.131629 74.147957 
L 262.655364 72.631819 
L 264.179099 73.471058 
L 265.702834 74.561297 
L 267.226569 81.822307 
L 268.750304 85.846059 
L 270.274039 86.085654 
L 273.32151 85.921844 
L 274.845245 85.729382 
L 276.36898 85.966634 
L 277.892715 87.487964 
L 279.41645 87.593824 
L 280.940185 87.258862 
L 282.46392 86.492151 
L 283.987655 86.320581 
L 287.035125 85.474947 
L 288.558861 84.399995 
L 291.606331 83.27171 
L 293.130066 84.124392 
L 294.653801 83.808829 
L 296.177536 83.217321 
L 297.701271 82.825726 
L 299.225006 83.704855 
L 300.748741 83.339826 
L 302.272476 82.736155 
L 303.796211 82.380535 
L 305.319947 83.427557 
L 308.367417 82.45415 
L 309.891152 82.738515 
L 311.414887 83.419694 
L 312.938622 83.854807 
L 314.462357 84.021872 
L 315.986092 84.043639 
L 317.509827 83.898784 
L 319.033562 84.675603 
L 320.557297 84.966546 
L 322.081032 84.651263 
L 323.604768 84.99583 
L 325.128503 85.535452 
L 326.652238 87.146066 
L 328.175973 89.770499 
L 329.699708 90.296067 
L 331.223443 92.854782 
L 332.747178 93.118926 
L 355.603204 93.218381 
L 357.12694 92.988215 
L 360.17441 93.139543 
L 364.745615 93.035635 
L 366.26935 92.876801 
L 367.793085 93.046635 
L 370.840555 92.537316 
L 372.36429 91.868908 
L 373.888026 91.472061 
L 375.411761 90.797645 
L 376.935496 91.018722 
L 378.459231 91.10999 
L 379.982966 90.402723 
L 381.506701 90.396823 
L 383.030436 92.055655 
L 384.554171 92.389059 
L 386.077906 93.058564 
L 387.601641 91.769015 
L 389.125376 92.666488 
L 390.649111 91.642199 
L 392.172847 91.211849 
L 393.696582 89.991692 
L 395.220317 89.185776 
L 396.744052 89.346765 
L 398.267787 87.719843 
L 399.791522 86.665055 
L 401.315257 85.405751 
L 402.838992 85.660678 
L 404.362727 85.608002 
L 404.362727 85.608002 
" style="fill:none;stroke:#1f77b4;stroke-linecap:square;stroke-width:1.5;"/>
   </g>
   <g id="line2d_9">
    <path clip-path="url(#pe548007d8b)" d="M 67.617273 97.892727 
L 69.141008 85.914037 
L 70.664743 85.736672 
L 73.712213 87.275335 
L 76.759683 86.821539 
L 78.283418 85.653251 
L 79.807153 85.524895 
L 81.330889 86.129877 
L 82.854624 85.969763 
L 84.378359 84.219009 
L 87.425829 84.020943 
L 88.949564 83.093651 
L 90.473299 82.369909 
L 91.997034 83.263561 
L 93.520769 81.620795 
L 95.044504 81.577173 
L 96.568239 80.712217 
L 98.091974 80.924313 
L 99.61571 79.788798 
L 101.139445 79.758169 
L 102.66318 78.053273 
L 104.186915 76.564176 
L 105.71065 77.591023 
L 107.234385 76.335185 
L 108.75812 77.580834 
L 110.281855 77.188412 
L 111.80559 75.827199 
L 113.329325 76.215231 
L 114.85306 73.334487 
L 116.376796 75.604416 
L 117.900531 75.505072 
L 119.424266 75.250462 
L 120.948001 74.038835 
L 122.471736 74.190418 
L 123.995471 74.716322 
L 125.519206 73.625258 
L 127.042941 73.434674 
L 128.566676 73.54151 
L 130.090411 73.214561 
L 131.614146 72.21977 
L 133.137882 75.21376 
L 136.185352 75.408572 
L 137.709087 75.791785 
L 139.232822 75.433486 
L 140.756557 76.104565 
L 142.280292 74.666449 
L 143.804027 74.077565 
L 145.327762 74.076431 
L 149.898968 73.598758 
L 152.946438 72.842435 
L 154.470173 70.4559 
L 157.517643 70.347086 
L 159.041378 73.053525 
L 160.565113 75.111222 
L 162.088848 74.512862 
L 163.612583 71.227155 
L 165.136318 69.953916 
L 166.660053 67.973028 
L 168.183789 33.124375 
L 169.707524 31.506706 
L 171.231259 28.808489 
L 172.754994 32.297496 
L 174.278729 32.688632 
L 175.802464 59.719387 
L 177.326199 69.822059 
L 178.849934 68.061466 
L 180.373669 68.220346 
L 181.897404 68.236521 
L 183.421139 71.106367 
L 184.944875 68.998463 
L 186.46861 68.938645 
L 187.992345 69.053199 
L 189.51608 67.227647 
L 191.039815 66.954604 
L 192.56355 68.754302 
L 194.087285 68.519945 
L 195.61102 67.052153 
L 197.134755 70.136102 
L 198.65849 69.032554 
L 200.182225 68.508391 
L 201.705961 70.823666 
L 203.229696 69.685031 
L 204.753431 72.905889 
L 206.277166 71.809881 
L 207.800901 73.726461 
L 209.324636 72.744878 
L 210.848371 74.220226 
L 212.372106 73.65081 
L 213.895841 74.783343 
L 215.419576 74.183681 
L 216.943311 74.268372 
L 218.467046 74.621992 
L 219.990782 74.113028 
L 221.514517 74.570666 
L 224.561987 75.136346 
L 226.085722 74.951953 
L 227.609457 75.901941 
L 229.133192 75.644866 
L 232.180662 75.900792 
L 233.704397 76.508743 
L 236.751868 75.395562 
L 238.275603 76.351424 
L 239.799338 76.187906 
L 241.323073 75.767676 
L 242.846808 76.524809 
L 244.370543 75.303804 
L 245.894278 76.161335 
L 247.418013 76.019284 
L 248.941748 76.936123 
L 250.465483 75.667141 
L 251.989218 76.593149 
L 253.512954 75.968268 
L 255.036689 75.713187 
L 256.560424 74.367434 
L 258.084159 74.01628 
L 259.607894 46.837035 
L 261.131629 36.094667 
L 262.655364 36.98028 
L 264.179099 36.085787 
L 265.702834 37.810791 
L 267.226569 46.164289 
L 268.750304 73.969829 
L 270.274039 75.474416 
L 271.797775 74.903811 
L 273.32151 75.287955 
L 274.845245 75.447983 
L 276.36898 76.763284 
L 277.892715 76.6438 
L 279.41645 78.009023 
L 280.940185 77.949213 
L 282.46392 75.869195 
L 283.987655 77.133111 
L 287.035125 77.168545 
L 288.558861 76.418987 
L 290.082596 76.460207 
L 291.606331 76.248691 
L 293.130066 77.579459 
L 296.177536 76.996344 
L 297.701271 76.826168 
L 299.225006 77.827827 
L 300.748741 77.891709 
L 302.272476 76.105912 
L 303.796211 75.971222 
L 305.319947 76.680946 
L 308.367417 75.858632 
L 309.891152 75.284393 
L 311.414887 75.779816 
L 312.938622 75.722854 
L 314.462357 74.410435 
L 315.986092 72.146347 
L 317.509827 68.408748 
L 319.033562 62.251913 
L 320.557297 41.030772 
L 322.081032 14.947273 
L 323.604768 17.074961 
L 325.128503 18.840094 
L 326.652238 22.265323 
L 328.175973 29.221741 
L 329.699708 48.327516 
L 331.223443 87.143012 
L 332.747178 87.953718 
L 334.270913 87.049438 
L 335.794648 86.400584 
L 337.318383 87.104782 
L 338.842118 86.426088 
L 340.365854 86.450789 
L 341.889589 86.039574 
L 343.413324 86.566596 
L 344.937059 85.283689 
L 346.460794 86.005911 
L 347.984529 85.306544 
L 349.508264 85.325274 
L 351.031999 84.39108 
L 352.555734 84.853945 
L 354.079469 83.915356 
L 355.603204 84.757322 
L 357.12694 83.405682 
L 358.650675 84.180895 
L 360.17441 82.915673 
L 361.698145 83.713631 
L 363.22188 82.13095 
L 366.26935 81.419854 
L 367.793085 82.09386 
L 369.31682 81.920515 
L 370.840555 79.183951 
L 372.36429 79.366833 
L 373.888026 78.946605 
L 375.411761 74.387267 
L 376.935496 77.124815 
L 378.459231 75.528404 
L 379.982966 72.530898 
L 381.506701 67.842183 
L 383.030436 67.984212 
L 384.554171 64.188232 
L 386.077906 63.882435 
L 387.601641 59.56584 
L 389.125376 61.123277 
L 390.649111 59.535653 
L 392.172847 60.888995 
L 393.696582 60.912845 
L 395.220317 62.399124 
L 396.744052 66.991742 
L 398.267787 66.521744 
L 399.791522 65.923021 
L 401.315257 66.085324 
L 402.838992 68.411633 
L 404.362727 69.442413 
L 404.362727 69.442413 
" style="fill:none;stroke:#ff7f0e;stroke-linecap:square;stroke-width:1.5;"/>
   </g>
   <g id="patch_3">
    <path d="M 50.78 102.04 
L 50.78 10.8 
" style="fill:none;stroke:#000000;stroke-linecap:square;stroke-linejoin:miter;stroke-width:0.8;"/>
   </g>
   <g id="patch_4">
    <path d="M 421.2 102.04 
L 421.2 10.8 
" style="fill:none;stroke:#000000;stroke-linecap:square;stroke-linejoin:miter;stroke-width:0.8;"/>
   </g>
   <g id="patch_5">
    <path d="M 50.78 102.04 
L 421.2 102.04 
" style="fill:none;stroke:#000000;stroke-linecap:square;stroke-linejoin:miter;stroke-width:0.8;"/>
   </g>
   <g id="patch_6">
    <path d="M 50.78 10.8 
L 421.2 10.8 
" style="fill:none;stroke:#000000;stroke-linecap:square;stroke-linejoin:miter;stroke-width:0.8;"/>
   </g>
   <g id="legend_1">
    <g id="patch_7">
     <path d="M 294.365625 48.15625 
L 414.2 48.15625 
Q 416.2 48.15625 416.2 46.15625 
L 416.2 17.8 
Q 416.2 15.8 414.2 15.8 
L 294.365625 15.8 
Q 292.365625 15.8 292.365625 17.8 
L 292.365625 46.15625 
Q 292.365625 48.15625 294.365625 48.15625 
z
" style="fill:#ffffff;opacity:0.8;stroke:#cccccc;stroke-linejoin:miter;"/>
    </g>
    <g id="line2d_10">
     <path d="M 296.365625 23.898437 
L 316.365625 23.898437 
" style="fill:none;stroke:#1f77b4;stroke-linecap:square;stroke-width:1.5;"/>
    </g>
    <g id="line2d_11"/>
    <g id="text_10">
     <text style="font-family:DejaVu Sans;font-size:10px;font-stretch:normal;font-style:normal;font-weight:normal;text-anchor:start;" transform="rotate(-0, 324.365625, 27.398437)" x="324.365625" y="27.398437">Proposed method</text>
    </g>
    <g id="line2d_12">
     <path d="M 296.365625 38.576562 
L 316.365625 38.576562 
" style="fill:none;stroke:#ff7f0e;stroke-linecap:square;stroke-width:1.5;"/>
    </g>
    <g id="line2d_13"/>
    <g id="text_11">
     <text style="font-family:DejaVu Sans;font-size:10px;font-stretch:normal;font-style:normal;font-weight:normal;text-anchor:start;" transform="rotate(-0, 324.365625, 42.076562)" x="324.365625" y="42.076562">Baseline method</text>
    </g>
   </g>
  </g>
 </g>
 <defs>
  <clipPath id="pe548007d8b">
   <rect height="91.24" width="370.42" x="50.78" y="10.8"/>
  </clipPath>
 </defs>
</svg>
